<?xml version="1.0" encoding="UTF-8" standalone="no"?>
<!DOCTYPE svg PUBLIC "-//W3C//DTD SVG 1.1//EN"
 "http://www.w3.org/Graphics/SVG/1.1/DTD/svg11.dtd">
<!-- Generated by graphviz version 2.30.1 (20130221.2233)
 -->
<!-- Title: controllers_diagram Pages: 1 -->
<svg width="883pt" height="1043pt"
 viewBox="0.00 0.00 883.09 1043.24" xmlns="http://www.w3.org/2000/svg" xmlns:xlink="http://www.w3.org/1999/xlink">
<g id="graph0" class="graph" transform="scale(1 1) rotate(0) translate(4 1039.24)">
<title>controllers_diagram</title>
<polygon fill="white" stroke="white" points="-4,5 -4,-1039.24 880.09,-1039.24 880.09,5 -4,5"/>
<!-- _diagram_info -->
<g id="node1" class="node"><title>_diagram_info</title>
<text text-anchor="start" x="656" y="-501" font-family="Times,serif" font-size="13.00">Controllers diagram</text>
<text text-anchor="start" x="656" y="-485.4" font-family="Times,serif" font-size="13.00">Date: Jun 19 2013 &#45; 02:49</text>
<text text-anchor="start" x="656" y="-469.8" font-family="Times,serif" font-size="13.00">Migration version: 20130616111312</text>
<text text-anchor="start" x="656" y="-454.2" font-family="Times,serif" font-size="13.00">Generated by RailRoady 1.1.0</text>
<text text-anchor="start" x="656" y="-438.6" font-family="Times,serif" font-size="13.00">http://railroady.prestonlee.com</text>
</g>
<!-- ApplicationController -->
<g id="node2" class="node"><title>ApplicationController</title>
<path fill="none" stroke="black" d="M211.993,-527.802C211.993,-527.802 390.628,-527.802 390.628,-527.802 396.628,-527.802 402.628,-533.802 402.628,-539.802 402.628,-539.802 402.628,-647.802 402.628,-647.802 402.628,-653.802 396.628,-659.802 390.628,-659.802 390.628,-659.802 211.993,-659.802 211.993,-659.802 205.993,-659.802 199.993,-653.802 199.993,-647.802 199.993,-647.802 199.993,-539.802 199.993,-539.802 199.993,-533.802 205.993,-527.802 211.993,-527.802"/>
<text text-anchor="middle" x="301.311" y="-641.802" font-family="Times,serif" font-size="14.00">ApplicationController</text>
<polyline fill="none" stroke="black" points="199.993,-635.002 402.628,-635.002 "/>
<text text-anchor="start" x="207.993" y="-617.002" font-family="Times,serif" font-size="14.00">_one_time_conditions_valid_69?</text>
<text text-anchor="start" x="207.993" y="-600.202" font-family="Times,serif" font-size="14.00">after_sign_in_path_for</text>
<text text-anchor="start" x="207.993" y="-583.402" font-family="Times,serif" font-size="14.00">handle_unverified_request</text>
<polyline fill="none" stroke="black" points="199.993,-576.602 402.628,-576.602 "/>
<polyline fill="none" stroke="black" points="199.993,-552.602 402.628,-552.602 "/>
<text text-anchor="start" x="207.993" y="-534.602" font-family="Times,serif" font-size="14.00">_layout</text>
</g>
<!-- AttachmentsController -->
<g id="node3" class="node"><title>AttachmentsController</title>
<path fill="none" stroke="black" d="M477.533,-582.262C477.533,-582.262 597.837,-582.262 597.837,-582.262 603.837,-582.262 609.837,-588.262 609.837,-594.262 609.837,-594.262 609.837,-735.862 609.837,-735.862 609.837,-741.862 603.837,-747.862 597.837,-747.862 597.837,-747.862 477.533,-747.862 477.533,-747.862 471.533,-747.862 465.533,-741.862 465.533,-735.862 465.533,-735.862 465.533,-594.262 465.533,-594.262 465.533,-588.262 471.533,-582.262 477.533,-582.262"/>
<text text-anchor="middle" x="537.685" y="-729.862" font-family="Times,serif" font-size="14.00">AttachmentsController</text>
<polyline fill="none" stroke="black" points="465.533,-723.062 609.837,-723.062 "/>
<text text-anchor="start" x="473.533" y="-705.062" font-family="Times,serif" font-size="14.00">create</text>
<text text-anchor="start" x="473.533" y="-688.262" font-family="Times,serif" font-size="14.00">index</text>
<text text-anchor="start" x="473.533" y="-671.462" font-family="Times,serif" font-size="14.00">new</text>
<text text-anchor="start" x="473.533" y="-654.662" font-family="Times,serif" font-size="14.00">show</text>
<polyline fill="none" stroke="black" points="465.533,-647.862 609.837,-647.862 "/>
<polyline fill="none" stroke="black" points="465.533,-623.862 609.837,-623.862 "/>
<text text-anchor="start" x="473.533" y="-605.862" font-family="Times,serif" font-size="14.00">_layout</text>
<text text-anchor="start" x="473.533" y="-589.062" font-family="Times,serif" font-size="14.00">get_file_name</text>
</g>
<!-- ApplicationController&#45;&gt;AttachmentsController -->
<g id="edge1" class="edge"><title>ApplicationController&#45;&gt;AttachmentsController</title>
<path fill="none" stroke="black" d="M402.926,-624.436C423.948,-630.774 445.683,-637.326 465.4,-643.27"/>
</g>
<!-- ClientsController -->
<g id="node4" class="node"><title>ClientsController</title>
<path fill="none" stroke="black" d="M267.853,-160.258C267.853,-160.258 357.067,-160.258 357.067,-160.258 363.067,-160.258 369.067,-166.258 369.067,-172.258 369.067,-172.258 369.067,-347.458 369.067,-347.458 369.067,-353.458 363.067,-359.458 357.067,-359.458 357.067,-359.458 267.853,-359.458 267.853,-359.458 261.853,-359.458 255.853,-353.458 255.853,-347.458 255.853,-347.458 255.853,-172.258 255.853,-172.258 255.853,-166.258 261.853,-160.258 267.853,-160.258"/>
<text text-anchor="middle" x="312.46" y="-341.458" font-family="Times,serif" font-size="14.00">ClientsController</text>
<polyline fill="none" stroke="black" points="255.853,-334.658 369.067,-334.658 "/>
<text text-anchor="start" x="263.853" y="-316.658" font-family="Times,serif" font-size="14.00">create</text>
<text text-anchor="start" x="263.853" y="-299.858" font-family="Times,serif" font-size="14.00">destroy</text>
<text text-anchor="start" x="263.853" y="-283.058" font-family="Times,serif" font-size="14.00">edit</text>
<text text-anchor="start" x="263.853" y="-266.258" font-family="Times,serif" font-size="14.00">index</text>
<text text-anchor="start" x="263.853" y="-249.458" font-family="Times,serif" font-size="14.00">new</text>
<text text-anchor="start" x="263.853" y="-232.658" font-family="Times,serif" font-size="14.00">show</text>
<text text-anchor="start" x="263.853" y="-215.858" font-family="Times,serif" font-size="14.00">update</text>
<polyline fill="none" stroke="black" points="255.853,-209.058 369.067,-209.058 "/>
<polyline fill="none" stroke="black" points="255.853,-185.058 369.067,-185.058 "/>
<text text-anchor="start" x="263.853" y="-167.058" font-family="Times,serif" font-size="14.00">_layout</text>
</g>
<!-- ApplicationController&#45;&gt;ClientsController -->
<g id="edge2" class="edge"><title>ApplicationController&#45;&gt;ClientsController</title>
<path fill="none" stroke="black" d="M303.527,-527.426C305.127,-479.493 307.316,-413.926 309.126,-359.695"/>
</g>
<!-- CommentsController -->
<g id="node5" class="node"><title>CommentsController</title>
<path fill="none" stroke="black" d="M30.9341,-797.499C30.9341,-797.499 141.148,-797.499 141.148,-797.499 147.148,-797.499 153.148,-803.499 153.148,-809.499 153.148,-809.499 153.148,-900.699 153.148,-900.699 153.148,-906.699 147.148,-912.699 141.148,-912.699 141.148,-912.699 30.9341,-912.699 30.9341,-912.699 24.9341,-912.699 18.9341,-906.699 18.9341,-900.699 18.9341,-900.699 18.9341,-809.499 18.9341,-809.499 18.9341,-803.499 24.9341,-797.499 30.9341,-797.499"/>
<text text-anchor="middle" x="86.041" y="-894.699" font-family="Times,serif" font-size="14.00">CommentsController</text>
<polyline fill="none" stroke="black" points="18.9341,-887.899 153.148,-887.899 "/>
<text text-anchor="start" x="26.9341" y="-869.899" font-family="Times,serif" font-size="14.00">create</text>
<text text-anchor="start" x="26.9341" y="-853.099" font-family="Times,serif" font-size="14.00">update</text>
<polyline fill="none" stroke="black" points="18.9341,-846.299 153.148,-846.299 "/>
<polyline fill="none" stroke="black" points="18.9341,-822.299 153.148,-822.299 "/>
<text text-anchor="start" x="26.9341" y="-804.299" font-family="Times,serif" font-size="14.00">_layout</text>
</g>
<!-- ApplicationController&#45;&gt;CommentsController -->
<g id="edge3" class="edge"><title>ApplicationController&#45;&gt;CommentsController</title>
<path fill="none" stroke="black" d="M246.711,-660.076C211.833,-702.41 167.051,-756.767 133.629,-797.336"/>
</g>
<!-- HomeController -->
<g id="node6" class="node"><title>HomeController</title>
<path fill="none" stroke="black" d="M499.351,-866.294C499.351,-866.294 583.11,-866.294 583.11,-866.294 589.11,-866.294 595.11,-872.294 595.11,-878.294 595.11,-878.294 595.11,-952.694 595.11,-952.694 595.11,-958.694 589.11,-964.694 583.11,-964.694 583.11,-964.694 499.351,-964.694 499.351,-964.694 493.351,-964.694 487.351,-958.694 487.351,-952.694 487.351,-952.694 487.351,-878.294 487.351,-878.294 487.351,-872.294 493.351,-866.294 499.351,-866.294"/>
<text text-anchor="middle" x="541.23" y="-946.694" font-family="Times,serif" font-size="14.00">HomeController</text>
<polyline fill="none" stroke="black" points="487.351,-939.894 595.11,-939.894 "/>
<text text-anchor="start" x="495.351" y="-921.894" font-family="Times,serif" font-size="14.00">index</text>
<polyline fill="none" stroke="black" points="487.351,-915.094 595.11,-915.094 "/>
<polyline fill="none" stroke="black" points="487.351,-891.094 595.11,-891.094 "/>
<text text-anchor="start" x="495.351" y="-873.094" font-family="Times,serif" font-size="14.00">_layout</text>
</g>
<!-- ApplicationController&#45;&gt;HomeController -->
<g id="edge4" class="edge"><title>ApplicationController&#45;&gt;HomeController</title>
<path fill="none" stroke="black" d="M350.731,-660.066C396.41,-721.315 463.254,-810.94 504.408,-866.122"/>
</g>
<!-- MailThreadsController -->
<g id="node7" class="node"><title>MailThreadsController</title>
<path fill="none" stroke="black" d="M222.956,-768.339C222.956,-768.339 379.026,-768.339 379.026,-768.339 385.026,-768.339 391.026,-774.339 391.026,-780.339 391.026,-780.339 391.026,-1022.74 391.026,-1022.74 391.026,-1028.74 385.026,-1034.74 379.026,-1034.74 379.026,-1034.74 222.956,-1034.74 222.956,-1034.74 216.956,-1034.74 210.956,-1028.74 210.956,-1022.74 210.956,-1022.74 210.956,-780.339 210.956,-780.339 210.956,-774.339 216.956,-768.339 222.956,-768.339"/>
<text text-anchor="middle" x="300.991" y="-1016.74" font-family="Times,serif" font-size="14.00">MailThreadsController</text>
<polyline fill="none" stroke="black" points="210.956,-1009.94 391.026,-1009.94 "/>
<text text-anchor="start" x="218.956" y="-991.939" font-family="Times,serif" font-size="14.00">compose</text>
<text text-anchor="start" x="218.956" y="-975.139" font-family="Times,serif" font-size="14.00">deliver</text>
<text text-anchor="start" x="218.956" y="-958.339" font-family="Times,serif" font-size="14.00">edit</text>
<text text-anchor="start" x="218.956" y="-941.539" font-family="Times,serif" font-size="14.00">refresh</text>
<text text-anchor="start" x="218.956" y="-924.739" font-family="Times,serif" font-size="14.00">remove_mail</text>
<text text-anchor="start" x="218.956" y="-907.939" font-family="Times,serif" font-size="14.00">remove_thread</text>
<polyline fill="none" stroke="black" points="210.956,-901.139 391.026,-901.139 "/>
<polyline fill="none" stroke="black" points="210.956,-877.139 391.026,-877.139 "/>
<text text-anchor="start" x="218.956" y="-859.139" font-family="Times,serif" font-size="14.00">_layout</text>
<text text-anchor="start" x="218.956" y="-842.339" font-family="Times,serif" font-size="14.00">create_email_item</text>
<text text-anchor="start" x="218.956" y="-825.539" font-family="Times,serif" font-size="14.00">get_last_update_date_of</text>
<text text-anchor="start" x="218.956" y="-808.739" font-family="Times,serif" font-size="14.00">get_thread_for</text>
<text text-anchor="start" x="218.956" y="-791.939" font-family="Times,serif" font-size="14.00">mail_does_not_already_exist</text>
<text text-anchor="start" x="218.956" y="-775.139" font-family="Times,serif" font-size="14.00">normalized_subject_of</text>
</g>
<!-- ApplicationController&#45;&gt;MailThreadsController -->
<g id="edge5" class="edge"><title>ApplicationController&#45;&gt;MailThreadsController</title>
<path fill="none" stroke="black" d="M301.242,-659.819C301.209,-691.52 301.169,-730.703 301.13,-768.226"/>
</g>
<!-- TasksController -->
<g id="node8" class="node"><title>TasksController</title>
<path fill="none" stroke="black" d="M54.726,-410.658C54.726,-410.658 135.955,-410.658 135.955,-410.658 141.955,-410.658 147.955,-416.658 147.955,-422.658 147.955,-422.658 147.955,-597.858 147.955,-597.858 147.955,-603.858 141.955,-609.858 135.955,-609.858 135.955,-609.858 54.726,-609.858 54.726,-609.858 48.726,-609.858 42.726,-603.858 42.726,-597.858 42.726,-597.858 42.726,-422.658 42.726,-422.658 42.726,-416.658 48.726,-410.658 54.726,-410.658"/>
<text text-anchor="middle" x="95.3407" y="-591.858" font-family="Times,serif" font-size="14.00">TasksController</text>
<polyline fill="none" stroke="black" points="42.726,-585.058 147.955,-585.058 "/>
<text text-anchor="start" x="50.726" y="-567.058" font-family="Times,serif" font-size="14.00">create</text>
<text text-anchor="start" x="50.726" y="-550.258" font-family="Times,serif" font-size="14.00">helper</text>
<text text-anchor="start" x="50.726" y="-533.458" font-family="Times,serif" font-size="14.00">new</text>
<polyline fill="none" stroke="black" points="42.726,-526.658 147.955,-526.658 "/>
<polyline fill="none" stroke="black" points="42.726,-502.658 147.955,-502.658 "/>
<text text-anchor="start" x="50.726" y="-484.658" font-family="Times,serif" font-size="14.00">_layout</text>
<text text-anchor="start" x="50.726" y="-467.858" font-family="Times,serif" font-size="14.00">change_quote</text>
<text text-anchor="start" x="50.726" y="-451.058" font-family="Times,serif" font-size="14.00">task_done</text>
<text text-anchor="start" x="50.726" y="-434.258" font-family="Times,serif" font-size="14.00">test_accept</text>
<text text-anchor="start" x="50.726" y="-417.458" font-family="Times,serif" font-size="14.00">test_reject</text>
</g>
<!-- ApplicationController&#45;&gt;TasksController -->
<g id="edge6" class="edge"><title>ApplicationController&#45;&gt;TasksController</title>
<path fill="none" stroke="black" d="M199.834,-552.642C181.963,-545.393 164.03,-538.12 148.191,-531.695"/>
</g>
<!-- TextController -->
<g id="node9" class="node"><title>TextController</title>
<path fill="none" stroke="black" d="M492.983,-391.545C492.983,-391.545 567.206,-391.545 567.206,-391.545 573.206,-391.545 579.206,-397.545 579.206,-403.545 579.206,-403.545 579.206,-477.945 579.206,-477.945 579.206,-483.945 573.206,-489.945 567.206,-489.945 567.206,-489.945 492.983,-489.945 492.983,-489.945 486.983,-489.945 480.983,-483.945 480.983,-477.945 480.983,-477.945 480.983,-403.545 480.983,-403.545 480.983,-397.545 486.983,-391.545 492.983,-391.545"/>
<text text-anchor="middle" x="530.095" y="-471.945" font-family="Times,serif" font-size="14.00">TextController</text>
<polyline fill="none" stroke="black" points="480.983,-465.145 579.206,-465.145 "/>
<text text-anchor="start" x="488.983" y="-447.145" font-family="Times,serif" font-size="14.00">markup</text>
<polyline fill="none" stroke="black" points="480.983,-440.345 579.206,-440.345 "/>
<polyline fill="none" stroke="black" points="480.983,-416.345 579.206,-416.345 "/>
<text text-anchor="start" x="488.983" y="-398.345" font-family="Times,serif" font-size="14.00">_layout</text>
</g>
<!-- ApplicationController&#45;&gt;TextController -->
<g id="edge7" class="edge"><title>ApplicationController&#45;&gt;TextController</title>
<path fill="none" stroke="black" d="M399.996,-527.781C427.932,-509.092 457.143,-489.55 480.791,-473.729"/>
</g>
<!-- TicketsController -->
<g id="node10" class="node"><title>TicketsController</title>
<path fill="none" stroke="black" d="M12,-0.5C12,-0.5 197.635,-0.5 197.635,-0.5 203.635,-0.5 209.635,-6.5 209.635,-12.5 209.635,-12.5 209.635,-372.5 209.635,-372.5 209.635,-378.5 203.635,-384.5 197.635,-384.5 197.635,-384.5 12,-384.5 12,-384.5 6,-384.5 0,-378.5 0,-372.5 0,-372.5 0,-12.5 0,-12.5 0,-6.5 6,-0.5 12,-0.5"/>
<text text-anchor="middle" x="104.817" y="-366.5" font-family="Times,serif" font-size="14.00">TicketsController</text>
<polyline fill="none" stroke="black" points="0,-359.7 209.635,-359.7 "/>
<text text-anchor="start" x="8" y="-341.7" font-family="Times,serif" font-size="14.00">_one_time_conditions_valid_199?</text>
<text text-anchor="start" x="8" y="-324.9" font-family="Times,serif" font-size="14.00">_one_time_conditions_valid_203?</text>
<text text-anchor="start" x="8" y="-308.1" font-family="Times,serif" font-size="14.00">_one_time_conditions_valid_205?</text>
<text text-anchor="start" x="8" y="-291.3" font-family="Times,serif" font-size="14.00">_one_time_conditions_valid_209?</text>
<text text-anchor="start" x="8" y="-274.5" font-family="Times,serif" font-size="14.00">add_property</text>
<text text-anchor="start" x="8" y="-257.7" font-family="Times,serif" font-size="14.00">change_state</text>
<text text-anchor="start" x="8" y="-240.9" font-family="Times,serif" font-size="14.00">create</text>
<text text-anchor="start" x="8" y="-224.1" font-family="Times,serif" font-size="14.00">destroy</text>
<text text-anchor="start" x="8" y="-207.3" font-family="Times,serif" font-size="14.00">edit</text>
<text text-anchor="start" x="8" y="-190.5" font-family="Times,serif" font-size="14.00">index</text>
<text text-anchor="start" x="8" y="-173.7" font-family="Times,serif" font-size="14.00">new</text>
<text text-anchor="start" x="8" y="-156.9" font-family="Times,serif" font-size="14.00">roadmap</text>
<text text-anchor="start" x="8" y="-140.1" font-family="Times,serif" font-size="14.00">show</text>
<text text-anchor="start" x="8" y="-123.3" font-family="Times,serif" font-size="14.00">update</text>
<polyline fill="none" stroke="black" points="0,-116.5 209.635,-116.5 "/>
<polyline fill="none" stroke="black" points="0,-92.5 209.635,-92.5 "/>
<text text-anchor="start" x="8" y="-74.5" font-family="Times,serif" font-size="14.00">_layout</text>
<text text-anchor="start" x="8" y="-57.7" font-family="Times,serif" font-size="14.00">collect_ticket_params</text>
<text text-anchor="start" x="8" y="-40.9" font-family="Times,serif" font-size="14.00">format</text>
<text text-anchor="start" x="8" y="-24.1" font-family="Times,serif" font-size="14.00">format_properties</text>
<text text-anchor="start" x="8" y="-7.3" font-family="Times,serif" font-size="14.00">make_old_new_email_items_for</text>
</g>
<!-- ApplicationController&#45;&gt;TicketsController -->
<g id="edge8" class="edge"><title>ApplicationController&#45;&gt;TicketsController</title>
<path fill="none" stroke="black" d="M268.864,-527.535C249.625,-488.243 224.155,-436.226 199.038,-384.928"/>
</g>
<!-- UsersController -->
<g id="node12" class="node"><title>UsersController</title>
<path fill="none" stroke="black" d="M438.842,-74.5084C438.842,-74.5084 624.476,-74.5084 624.476,-74.5084 630.476,-74.5084 636.476,-80.5084 636.476,-86.5084 636.476,-86.5084 636.476,-261.708 636.476,-261.708 636.476,-267.708 630.476,-273.708 624.476,-273.708 624.476,-273.708 438.842,-273.708 438.842,-273.708 432.842,-273.708 426.842,-267.708 426.842,-261.708 426.842,-261.708 426.842,-86.5084 426.842,-86.5084 426.842,-80.5084 432.842,-74.5084 438.842,-74.5084"/>
<text text-anchor="middle" x="531.659" y="-255.708" font-family="Times,serif" font-size="14.00">UsersController</text>
<polyline fill="none" stroke="black" points="426.842,-248.908 636.476,-248.908 "/>
<text text-anchor="start" x="434.842" y="-230.908" font-family="Times,serif" font-size="14.00">_one_time_conditions_valid_231?</text>
<text text-anchor="start" x="434.842" y="-214.108" font-family="Times,serif" font-size="14.00">_one_time_conditions_valid_233?</text>
<text text-anchor="start" x="434.842" y="-197.308" font-family="Times,serif" font-size="14.00">destroy</text>
<text text-anchor="start" x="434.842" y="-180.508" font-family="Times,serif" font-size="14.00">edit</text>
<text text-anchor="start" x="434.842" y="-163.708" font-family="Times,serif" font-size="14.00">index</text>
<text text-anchor="start" x="434.842" y="-146.908" font-family="Times,serif" font-size="14.00">show</text>
<text text-anchor="start" x="434.842" y="-130.108" font-family="Times,serif" font-size="14.00">update</text>
<polyline fill="none" stroke="black" points="426.842,-123.308 636.476,-123.308 "/>
<polyline fill="none" stroke="black" points="426.842,-99.3084 636.476,-99.3084 "/>
<text text-anchor="start" x="434.842" y="-81.3084" font-family="Times,serif" font-size="14.00">_layout</text>
</g>
<!-- ApplicationController&#45;&gt;UsersController -->
<g id="edge9" class="edge"><title>ApplicationController&#45;&gt;UsersController</title>
<path fill="none" stroke="black" d="M337.556,-527.763C374.995,-459.549 433.874,-352.272 476.974,-273.744"/>
</g>
<!-- Users::InvitationsController -->
<g id="node11" class="node"><title>Users::InvitationsController</title>
<path fill="none" stroke="black" d="M714,-162.5C714,-162.5 863.09,-162.5 863.09,-162.5 869.09,-162.5 875.09,-168.5 875.09,-174.5 875.09,-174.5 875.09,-332.9 875.09,-332.9 875.09,-338.9 869.09,-344.9 863.09,-344.9 863.09,-344.9 714,-344.9 714,-344.9 708,-344.9 702,-338.9 702,-332.9 702,-332.9 702,-174.5 702,-174.5 702,-168.5 708,-162.5 714,-162.5"/>
<text text-anchor="middle" x="788.545" y="-326.9" font-family="Times,serif" font-size="14.00">Users::InvitationsController</text>
<polyline fill="none" stroke="black" points="702,-320.1 875.09,-320.1 "/>
<text text-anchor="start" x="710" y="-302.1" font-family="Times,serif" font-size="14.00">after_accept_path_for</text>
<text text-anchor="start" x="710" y="-285.3" font-family="Times,serif" font-size="14.00">after_invite_path_for</text>
<text text-anchor="start" x="710" y="-268.5" font-family="Times,serif" font-size="14.00">create</text>
<text text-anchor="start" x="710" y="-251.7" font-family="Times,serif" font-size="14.00">edit</text>
<text text-anchor="start" x="710" y="-234.9" font-family="Times,serif" font-size="14.00">new</text>
<text text-anchor="start" x="710" y="-218.1" font-family="Times,serif" font-size="14.00">update</text>
<polyline fill="none" stroke="black" points="702,-211.3 875.09,-211.3 "/>
<polyline fill="none" stroke="black" points="702,-187.3 875.09,-187.3 "/>
<text text-anchor="start" x="710" y="-169.3" font-family="Times,serif" font-size="14.00">_layout</text>
</g>
</g>
</svg>
