<?xml version="1.0" encoding="UTF-8" standalone="no"?>
<!DOCTYPE svg PUBLIC "-//W3C//DTD SVG 1.1//EN"
 "http://www.w3.org/Graphics/SVG/1.1/DTD/svg11.dtd">
<!-- Generated by graphviz version 2.26.3 (20100126.1600)
 -->
<!-- Title: controllers_diagram Pages: 1 -->
<svg width="946pt" height="813pt"
 viewBox="0.00 0.00 946.00 813.14" xmlns="http://www.w3.org/2000/svg" xmlns:xlink="http://www.w3.org/1999/xlink">
<g id="graph1" class="graph" transform="scale(1 1) rotate(0) translate(4 809.139)">
<title>controllers_diagram</title>
<polygon fill="white" stroke="white" points="-4,5 -4,-809.139 943,-809.139 943,5 -4,5"/>
<!-- _diagram_info -->
<g id="node1" class="node"><title>_diagram_info</title>
<text text-anchor="start" x="695" y="-568.3" font-family="Times Roman,serif" font-size="13.00">Controllers diagram</text>
<text text-anchor="start" x="695" y="-551.3" font-family="Times Roman,serif" font-size="13.00">Date: Jun 04 2013 &#45; 03:58</text>
<text text-anchor="start" x="695" y="-534.3" font-family="Times Roman,serif" font-size="13.00">Migration version: 20130520173354</text>
<text text-anchor="start" x="695" y="-517.3" font-family="Times Roman,serif" font-size="13.00">Generated by RailRoady 1.1.0</text>
<text text-anchor="start" x="695" y="-500.3" font-family="Times Roman,serif" font-size="13.00">http://railroady.prestonlee.com</text>
</g>
<!-- TextController -->
<g id="node2" class="node"><title>TextController</title>
<polyline fill="none" stroke="black" points="72.6276,-300.901 162.628,-300.901 "/>
<path fill="none" stroke="black" d="M162.628,-300.901C168.628,-300.901 174.628,-306.901 174.628,-312.901"/>
<polyline fill="none" stroke="black" points="174.628,-312.901 174.628,-390.901 "/>
<path fill="none" stroke="black" d="M174.628,-390.901C174.628,-396.901 168.628,-402.901 162.628,-402.901"/>
<polyline fill="none" stroke="black" points="162.628,-402.901 72.6276,-402.901 "/>
<path fill="none" stroke="black" d="M72.6276,-402.901C66.6276,-402.901 60.6276,-396.901 60.6276,-390.901"/>
<polyline fill="none" stroke="black" points="60.6276,-390.901 60.6276,-312.901 "/>
<path fill="none" stroke="black" d="M60.6276,-312.901C60.6276,-306.901 66.6276,-300.901 72.6276,-300.901"/>
<text text-anchor="middle" x="117.628" y="-386.301" font-family="Times Roman,serif" font-size="14.00">TextController</text>
<polyline fill="none" stroke="black" points="60.6276,-376.901 174.628,-376.901 "/>
<text text-anchor="start" x="68.6276" y="-360.301" font-family="Times Roman,serif" font-size="14.00">markup</text>
<polyline fill="none" stroke="black" points="60.6276,-350.901 174.628,-350.901 "/>
<polyline fill="none" stroke="black" points="60.6276,-326.901 174.628,-326.901 "/>
<text text-anchor="start" x="68.6276" y="-310.301" font-family="Times Roman,serif" font-size="14.00">_layout</text>
</g>
<!-- ClientsController -->
<g id="node3" class="node"><title>ClientsController</title>
<polyline fill="none" stroke="black" points="517.496,-311.92 625.496,-311.92 "/>
<path fill="none" stroke="black" d="M625.496,-311.92C631.496,-311.92 637.496,-317.92 637.496,-323.92"/>
<polyline fill="none" stroke="black" points="637.496,-323.92 637.496,-401.92 "/>
<path fill="none" stroke="black" d="M637.496,-401.92C637.496,-407.92 631.496,-413.92 625.496,-413.92"/>
<polyline fill="none" stroke="black" points="625.496,-413.92 517.496,-413.92 "/>
<path fill="none" stroke="black" d="M517.496,-413.92C511.496,-413.92 505.496,-407.92 505.496,-401.92"/>
<polyline fill="none" stroke="black" points="505.496,-401.92 505.496,-323.92 "/>
<path fill="none" stroke="black" d="M505.496,-323.92C505.496,-317.92 511.496,-311.92 517.496,-311.92"/>
<text text-anchor="middle" x="571.496" y="-397.32" font-family="Times Roman,serif" font-size="14.00">ClientsController</text>
<polyline fill="none" stroke="black" points="505.496,-387.92 637.496,-387.92 "/>
<text text-anchor="start" x="513.496" y="-371.32" font-family="Times Roman,serif" font-size="14.00">show</text>
<polyline fill="none" stroke="black" points="505.496,-361.92 637.496,-361.92 "/>
<polyline fill="none" stroke="black" points="505.496,-337.92 637.496,-337.92 "/>
<text text-anchor="start" x="513.496" y="-321.32" font-family="Times Roman,serif" font-size="14.00">_layout</text>
</g>
<!-- ApplicationController -->
<g id="node4" class="node"><title>ApplicationController</title>
<polyline fill="none" stroke="black" points="236.865,-283.64 450.865,-283.64 "/>
<path fill="none" stroke="black" d="M450.865,-283.64C456.865,-283.64 462.865,-289.64 462.865,-295.64"/>
<polyline fill="none" stroke="black" points="462.865,-295.64 462.865,-409.64 "/>
<path fill="none" stroke="black" d="M462.865,-409.64C462.865,-415.64 456.865,-421.64 450.865,-421.64"/>
<polyline fill="none" stroke="black" points="450.865,-421.64 236.865,-421.64 "/>
<path fill="none" stroke="black" d="M236.865,-421.64C230.865,-421.64 224.865,-415.64 224.865,-409.64"/>
<polyline fill="none" stroke="black" points="224.865,-409.64 224.865,-295.64 "/>
<path fill="none" stroke="black" d="M224.865,-295.64C224.865,-289.64 230.865,-283.64 236.865,-283.64"/>
<text text-anchor="middle" x="343.865" y="-405.04" font-family="Times Roman,serif" font-size="14.00">ApplicationController</text>
<polyline fill="none" stroke="black" points="224.865,-395.64 462.865,-395.64 "/>
<text text-anchor="start" x="232.865" y="-379.04" font-family="Times Roman,serif" font-size="14.00">_one_time_conditions_valid_65?</text>
<text text-anchor="start" x="232.865" y="-361.04" font-family="Times Roman,serif" font-size="14.00">after_sign_in_path_for</text>
<text text-anchor="start" x="232.865" y="-343.04" font-family="Times Roman,serif" font-size="14.00">handle_unverified_request</text>
<polyline fill="none" stroke="black" points="224.865,-333.64 462.865,-333.64 "/>
<polyline fill="none" stroke="black" points="224.865,-309.64 462.865,-309.64 "/>
<text text-anchor="start" x="232.865" y="-293.04" font-family="Times Roman,serif" font-size="14.00">_layout</text>
</g>
<!-- ApplicationController&#45;&gt;TextController -->
<g id="edge2" class="edge"><title>ApplicationController&#45;&gt;TextController</title>
<path fill="none" stroke="black" d="M224.784,-352.251C207.326,-352.194 190.057,-352.138 174.648,-352.088"/>
</g>
<!-- ApplicationController&#45;&gt;ClientsController -->
<g id="edge4" class="edge"><title>ApplicationController&#45;&gt;ClientsController</title>
<path fill="none" stroke="black" d="M463.014,-358.021C477.536,-358.677 491.942,-359.327 505.283,-359.93"/>
</g>
<!-- CommentsController -->
<g id="node5" class="node"><title>CommentsController</title>
<polyline fill="none" stroke="black" points="276.91,-571.996 411.91,-571.996 "/>
<path fill="none" stroke="black" d="M411.91,-571.996C417.91,-571.996 423.91,-577.996 423.91,-583.996"/>
<polyline fill="none" stroke="black" points="423.91,-583.996 423.91,-679.996 "/>
<path fill="none" stroke="black" d="M423.91,-679.996C423.91,-685.996 417.91,-691.996 411.91,-691.996"/>
<polyline fill="none" stroke="black" points="411.91,-691.996 276.91,-691.996 "/>
<path fill="none" stroke="black" d="M276.91,-691.996C270.91,-691.996 264.91,-685.996 264.91,-679.996"/>
<polyline fill="none" stroke="black" points="264.91,-679.996 264.91,-583.996 "/>
<path fill="none" stroke="black" d="M264.91,-583.996C264.91,-577.996 270.91,-571.996 276.91,-571.996"/>
<text text-anchor="middle" x="344.41" y="-675.396" font-family="Times Roman,serif" font-size="14.00">CommentsController</text>
<polyline fill="none" stroke="black" points="264.91,-665.996 423.91,-665.996 "/>
<text text-anchor="start" x="272.91" y="-649.396" font-family="Times Roman,serif" font-size="14.00">create</text>
<text text-anchor="start" x="272.91" y="-631.396" font-family="Times Roman,serif" font-size="14.00">update</text>
<polyline fill="none" stroke="black" points="264.91,-621.996 423.91,-621.996 "/>
<polyline fill="none" stroke="black" points="264.91,-597.996 423.91,-597.996 "/>
<text text-anchor="start" x="272.91" y="-581.396" font-family="Times Roman,serif" font-size="14.00">_layout</text>
</g>
<!-- ApplicationController&#45;&gt;CommentsController -->
<g id="edge6" class="edge"><title>ApplicationController&#45;&gt;CommentsController</title>
<path fill="none" stroke="black" d="M344,-421.695C344.09,-467.743 344.207,-527.688 344.293,-571.791"/>
</g>
<!-- HomeController -->
<g id="node6" class="node"><title>HomeController</title>
<polyline fill="none" stroke="black" points="515.617,-581.038 616.617,-581.038 "/>
<path fill="none" stroke="black" d="M616.617,-581.038C622.617,-581.038 628.617,-587.038 628.617,-593.038"/>
<polyline fill="none" stroke="black" points="628.617,-593.038 628.617,-671.038 "/>
<path fill="none" stroke="black" d="M628.617,-671.038C628.617,-677.038 622.617,-683.038 616.617,-683.038"/>
<polyline fill="none" stroke="black" points="616.617,-683.038 515.617,-683.038 "/>
<path fill="none" stroke="black" d="M515.617,-683.038C509.617,-683.038 503.617,-677.038 503.617,-671.038"/>
<polyline fill="none" stroke="black" points="503.617,-671.038 503.617,-593.038 "/>
<path fill="none" stroke="black" d="M503.617,-593.038C503.617,-587.038 509.617,-581.038 515.617,-581.038"/>
<text text-anchor="middle" x="566.117" y="-666.438" font-family="Times Roman,serif" font-size="14.00">HomeController</text>
<polyline fill="none" stroke="black" points="503.617,-657.038 628.617,-657.038 "/>
<text text-anchor="start" x="511.617" y="-640.438" font-family="Times Roman,serif" font-size="14.00">index</text>
<polyline fill="none" stroke="black" points="503.617,-631.038 628.617,-631.038 "/>
<polyline fill="none" stroke="black" points="503.617,-607.038 628.617,-607.038 "/>
<text text-anchor="start" x="511.617" y="-590.438" font-family="Times Roman,serif" font-size="14.00">_layout</text>
</g>
<!-- ApplicationController&#45;&gt;HomeController -->
<g id="edge8" class="edge"><title>ApplicationController&#45;&gt;HomeController</title>
<path fill="none" stroke="black" d="M398.804,-421.705C438.01,-470.992 489.879,-536.197 525.411,-580.866"/>
</g>
<!-- TicketsController -->
<g id="node7" class="node"><title>TicketsController</title>
<polyline fill="none" stroke="black" points="13,-449.639 236,-449.639 "/>
<path fill="none" stroke="black" d="M236,-449.639C242,-449.639 248,-455.639 248,-461.639"/>
<polyline fill="none" stroke="black" points="248,-461.639 248,-791.639 "/>
<path fill="none" stroke="black" d="M248,-791.639C248,-797.639 242,-803.639 236,-803.639"/>
<polyline fill="none" stroke="black" points="236,-803.639 13,-803.639 "/>
<path fill="none" stroke="black" d="M13,-803.639C7,-803.639 1,-797.639 1,-791.639"/>
<polyline fill="none" stroke="black" points="1,-791.639 1,-461.639 "/>
<path fill="none" stroke="black" d="M1,-461.639C1,-455.639 7,-449.639 13,-449.639"/>
<text text-anchor="middle" x="124.5" y="-787.039" font-family="Times Roman,serif" font-size="14.00">TicketsController</text>
<polyline fill="none" stroke="black" points="1,-777.639 248,-777.639 "/>
<text text-anchor="start" x="9" y="-761.039" font-family="Times Roman,serif" font-size="14.00">_one_time_conditions_valid_133?</text>
<text text-anchor="start" x="9" y="-743.039" font-family="Times Roman,serif" font-size="14.00">_one_time_conditions_valid_137?</text>
<text text-anchor="start" x="9" y="-725.039" font-family="Times Roman,serif" font-size="14.00">_one_time_conditions_valid_141?</text>
<text text-anchor="start" x="9" y="-707.039" font-family="Times Roman,serif" font-size="14.00">_one_time_conditions_valid_145?</text>
<text text-anchor="start" x="9" y="-689.039" font-family="Times Roman,serif" font-size="14.00">add_property</text>
<text text-anchor="start" x="9" y="-671.039" font-family="Times Roman,serif" font-size="14.00">create</text>
<text text-anchor="start" x="9" y="-653.039" font-family="Times Roman,serif" font-size="14.00">destroy</text>
<text text-anchor="start" x="9" y="-635.039" font-family="Times Roman,serif" font-size="14.00">edit</text>
<text text-anchor="start" x="9" y="-617.039" font-family="Times Roman,serif" font-size="14.00">index</text>
<text text-anchor="start" x="9" y="-599.039" font-family="Times Roman,serif" font-size="14.00">new</text>
<text text-anchor="start" x="9" y="-581.039" font-family="Times Roman,serif" font-size="14.00">show</text>
<text text-anchor="start" x="9" y="-563.039" font-family="Times Roman,serif" font-size="14.00">update</text>
<polyline fill="none" stroke="black" points="1,-553.639 248,-553.639 "/>
<polyline fill="none" stroke="black" points="1,-529.639 248,-529.639 "/>
<text text-anchor="start" x="9" y="-513.039" font-family="Times Roman,serif" font-size="14.00">_layout</text>
<text text-anchor="start" x="9" y="-495.039" font-family="Times Roman,serif" font-size="14.00">collect_ticket_params</text>
<text text-anchor="start" x="9" y="-477.039" font-family="Times Roman,serif" font-size="14.00">format</text>
<text text-anchor="start" x="9" y="-459.039" font-family="Times Roman,serif" font-size="14.00">format_properties</text>
</g>
<!-- ApplicationController&#45;&gt;TicketsController -->
<g id="edge10" class="edge"><title>ApplicationController&#45;&gt;TicketsController</title>
<path fill="none" stroke="black" d="M288.51,-421.782C276.008,-437.397 262.246,-454.587 248.172,-472.166"/>
</g>
<!-- UsersController -->
<g id="node8" class="node"><title>UsersController</title>
<polyline fill="none" stroke="black" points="68.1852,-6.27537 291.185,-6.27537 "/>
<path fill="none" stroke="black" d="M291.185,-6.27537C297.185,-6.27537 303.185,-12.2754 303.185,-18.2754"/>
<polyline fill="none" stroke="black" points="303.185,-18.2754 303.185,-186.275 "/>
<path fill="none" stroke="black" d="M303.185,-186.275C303.185,-192.275 297.185,-198.275 291.185,-198.275"/>
<polyline fill="none" stroke="black" points="291.185,-198.275 68.1852,-198.275 "/>
<path fill="none" stroke="black" d="M68.1852,-198.275C62.1852,-198.275 56.1852,-192.275 56.1852,-186.275"/>
<polyline fill="none" stroke="black" points="56.1852,-186.275 56.1852,-18.2754 "/>
<path fill="none" stroke="black" d="M56.1852,-18.2754C56.1852,-12.2754 62.1852,-6.27537 68.1852,-6.27537"/>
<text text-anchor="middle" x="179.685" y="-181.675" font-family="Times Roman,serif" font-size="14.00">UsersController</text>
<polyline fill="none" stroke="black" points="56.1852,-172.275 303.185,-172.275 "/>
<text text-anchor="start" x="64.1852" y="-155.675" font-family="Times Roman,serif" font-size="14.00">_one_time_conditions_valid_149?</text>
<text text-anchor="start" x="64.1852" y="-137.675" font-family="Times Roman,serif" font-size="14.00">_one_time_conditions_valid_151?</text>
<text text-anchor="start" x="64.1852" y="-119.675" font-family="Times Roman,serif" font-size="14.00">destroy</text>
<text text-anchor="start" x="64.1852" y="-101.675" font-family="Times Roman,serif" font-size="14.00">edit</text>
<text text-anchor="start" x="64.1852" y="-83.6754" font-family="Times Roman,serif" font-size="14.00">index</text>
<text text-anchor="start" x="64.1852" y="-65.6754" font-family="Times Roman,serif" font-size="14.00">update</text>
<polyline fill="none" stroke="black" points="56.1852,-56.2754 303.185,-56.2754 "/>
<polyline fill="none" stroke="black" points="56.1852,-32.2754 303.185,-32.2754 "/>
<text text-anchor="start" x="64.1852" y="-15.6754" font-family="Times Roman,serif" font-size="14.00">_layout</text>
</g>
<!-- ApplicationController&#45;&gt;UsersController -->
<g id="edge12" class="edge"><title>ApplicationController&#45;&gt;UsersController</title>
<path fill="none" stroke="black" d="M298.568,-283.564C281.293,-257.222 261.278,-226.7 242.654,-198.298"/>
</g>
<!-- TasksController -->
<g id="node10" class="node"><title>TasksController</title>
<polyline fill="none" stroke="black" points="468.114,-1.5 566.114,-1.5 "/>
<path fill="none" stroke="black" d="M566.114,-1.5C572.114,-1.5 578.114,-7.5 578.114,-13.5"/>
<polyline fill="none" stroke="black" points="578.114,-13.5 578.114,-199.5 "/>
<path fill="none" stroke="black" d="M578.114,-199.5C578.114,-205.5 572.114,-211.5 566.114,-211.5"/>
<polyline fill="none" stroke="black" points="566.114,-211.5 468.114,-211.5 "/>
<path fill="none" stroke="black" d="M468.114,-211.5C462.114,-211.5 456.114,-205.5 456.114,-199.5"/>
<polyline fill="none" stroke="black" points="456.114,-199.5 456.114,-13.5 "/>
<path fill="none" stroke="black" d="M456.114,-13.5C456.114,-7.5 462.114,-1.5 468.114,-1.5"/>
<text text-anchor="middle" x="517.114" y="-194.9" font-family="Times Roman,serif" font-size="14.00">TasksController</text>
<polyline fill="none" stroke="black" points="456.114,-185.5 578.114,-185.5 "/>
<text text-anchor="start" x="464.114" y="-168.9" font-family="Times Roman,serif" font-size="14.00">create</text>
<text text-anchor="start" x="464.114" y="-150.9" font-family="Times Roman,serif" font-size="14.00">helper</text>
<text text-anchor="start" x="464.114" y="-132.9" font-family="Times Roman,serif" font-size="14.00">new</text>
<polyline fill="none" stroke="black" points="456.114,-123.5 578.114,-123.5 "/>
<polyline fill="none" stroke="black" points="456.114,-99.5 578.114,-99.5 "/>
<text text-anchor="start" x="464.114" y="-82.9" font-family="Times Roman,serif" font-size="14.00">_layout</text>
<text text-anchor="start" x="464.114" y="-64.9" font-family="Times Roman,serif" font-size="14.00">change_quote</text>
<text text-anchor="start" x="464.114" y="-46.9" font-family="Times Roman,serif" font-size="14.00">task_done</text>
<text text-anchor="start" x="464.114" y="-28.9" font-family="Times Roman,serif" font-size="14.00">test_accept</text>
<text text-anchor="start" x="464.114" y="-10.9" font-family="Times Roman,serif" font-size="14.00">test_reject</text>
</g>
<!-- ApplicationController&#45;&gt;TasksController -->
<g id="edge14" class="edge"><title>ApplicationController&#45;&gt;TasksController</title>
<path fill="none" stroke="black" d="M392.586,-283.422C412.302,-255.41 435.282,-222.762 456.095,-193.192"/>
</g>
<!-- Users::InvitationsController -->
<g id="node9" class="node"><title>Users::InvitationsController</title>
<polyline fill="none" stroke="black" points="650,-50.5 832,-50.5 "/>
<path fill="none" stroke="black" d="M832,-50.5C838,-50.5 844,-56.5 844,-62.5"/>
<polyline fill="none" stroke="black" points="844,-62.5 844,-230.5 "/>
<path fill="none" stroke="black" d="M844,-230.5C844,-236.5 838,-242.5 832,-242.5"/>
<polyline fill="none" stroke="black" points="832,-242.5 650,-242.5 "/>
<path fill="none" stroke="black" d="M650,-242.5C644,-242.5 638,-236.5 638,-230.5"/>
<polyline fill="none" stroke="black" points="638,-230.5 638,-62.5 "/>
<path fill="none" stroke="black" d="M638,-62.5C638,-56.5 644,-50.5 650,-50.5"/>
<text text-anchor="middle" x="741" y="-225.9" font-family="Times Roman,serif" font-size="14.00">Users::InvitationsController</text>
<polyline fill="none" stroke="black" points="638,-216.5 844,-216.5 "/>
<text text-anchor="start" x="646" y="-199.9" font-family="Times Roman,serif" font-size="14.00">after_accept_path_for</text>
<text text-anchor="start" x="646" y="-181.9" font-family="Times Roman,serif" font-size="14.00">after_invite_path_for</text>
<text text-anchor="start" x="646" y="-163.9" font-family="Times Roman,serif" font-size="14.00">create</text>
<text text-anchor="start" x="646" y="-145.9" font-family="Times Roman,serif" font-size="14.00">edit</text>
<text text-anchor="start" x="646" y="-127.9" font-family="Times Roman,serif" font-size="14.00">new</text>
<text text-anchor="start" x="646" y="-109.9" font-family="Times Roman,serif" font-size="14.00">update</text>
<polyline fill="none" stroke="black" points="638,-100.5 844,-100.5 "/>
<polyline fill="none" stroke="black" points="638,-76.5 844,-76.5 "/>
<text text-anchor="start" x="646" y="-59.9" font-family="Times Roman,serif" font-size="14.00">_layout</text>
</g>
</g>
</svg>
