<?xml version="1.0" encoding="UTF-8" standalone="no"?>
<!DOCTYPE svg PUBLIC "-//W3C//DTD SVG 1.1//EN"
 "http://www.w3.org/Graphics/SVG/1.1/DTD/svg11.dtd">
<!-- Generated by graphviz version 2.26.3 (20100126.1600)
 -->
<!-- Title: models_diagram Pages: 1 -->
<svg width="1693pt" height="872pt"
 viewBox="0.00 0.00 1693.00 872.00" xmlns="http://www.w3.org/2000/svg" xmlns:xlink="http://www.w3.org/1999/xlink">
<g id="graph1" class="graph" transform="scale(1 1) rotate(0) translate(4 868)">
<title>models_diagram</title>
<polygon fill="white" stroke="white" points="-4,5 -4,-868 1690,-868 1690,5 -4,5"/>
<!-- _diagram_info -->
<g id="node1" class="node"><title>_diagram_info</title>
<text text-anchor="start" x="8" y="-696.8" font-family="Times Roman,serif" font-size="13.00">Models diagram</text>
<text text-anchor="start" x="8" y="-679.8" font-family="Times Roman,serif" font-size="13.00">Date: Jun 04 2013 &#45; 03:58</text>
<text text-anchor="start" x="8" y="-662.8" font-family="Times Roman,serif" font-size="13.00">Migration version: 20130520173354</text>
<text text-anchor="start" x="8" y="-645.8" font-family="Times Roman,serif" font-size="13.00">Generated by RailRoady 1.1.0</text>
<text text-anchor="start" x="8" y="-628.8" font-family="Times Roman,serif" font-size="13.00">http://railroady.prestonlee.com</text>
</g>
<!-- User -->
<g id="node2" class="node"><title>User</title>
<polyline fill="none" stroke="black" points="280,-469 510,-469 "/>
<path fill="none" stroke="black" d="M510,-469C516,-469 522,-475 522,-481"/>
<polyline fill="none" stroke="black" points="522,-481 522,-851 "/>
<path fill="none" stroke="black" d="M522,-851C522,-857 516,-863 510,-863"/>
<polyline fill="none" stroke="black" points="510,-863 280,-863 "/>
<path fill="none" stroke="black" d="M280,-863C274,-863 268,-857 268,-851"/>
<polyline fill="none" stroke="black" points="268,-851 268,-481 "/>
<path fill="none" stroke="black" d="M268,-481C268,-475 274,-469 280,-469"/>
<text text-anchor="middle" x="395" y="-846.4" font-family="Times Roman,serif" font-size="14.00">User</text>
<polyline fill="none" stroke="black" points="268,-837 522,-837 "/>
<text text-anchor="start" x="276" y="-820.4" font-family="Times Roman,serif" font-size="14.00">id :integer</text>
<text text-anchor="start" x="276" y="-802.4" font-family="Times Roman,serif" font-size="14.00">email :string</text>
<text text-anchor="start" x="276" y="-784.4" font-family="Times Roman,serif" font-size="14.00">encrypted_password :string</text>
<text text-anchor="start" x="276" y="-766.4" font-family="Times Roman,serif" font-size="14.00">reset_password_token :string</text>
<text text-anchor="start" x="276" y="-748.4" font-family="Times Roman,serif" font-size="14.00">reset_password_sent_at :datetime</text>
<text text-anchor="start" x="276" y="-730.4" font-family="Times Roman,serif" font-size="14.00">remember_created_at :datetime</text>
<text text-anchor="start" x="276" y="-712.4" font-family="Times Roman,serif" font-size="14.00">sign_in_count :integer</text>
<text text-anchor="start" x="276" y="-694.4" font-family="Times Roman,serif" font-size="14.00">current_sign_in_at :datetime</text>
<text text-anchor="start" x="276" y="-676.4" font-family="Times Roman,serif" font-size="14.00">last_sign_in_at :datetime</text>
<text text-anchor="start" x="276" y="-658.4" font-family="Times Roman,serif" font-size="14.00">current_sign_in_ip :string</text>
<text text-anchor="start" x="276" y="-640.4" font-family="Times Roman,serif" font-size="14.00">last_sign_in_ip :string</text>
<text text-anchor="start" x="276" y="-622.4" font-family="Times Roman,serif" font-size="14.00">created_at :datetime</text>
<text text-anchor="start" x="276" y="-604.4" font-family="Times Roman,serif" font-size="14.00">updated_at :datetime</text>
<text text-anchor="start" x="276" y="-586.4" font-family="Times Roman,serif" font-size="14.00">name :string</text>
<text text-anchor="start" x="276" y="-568.4" font-family="Times Roman,serif" font-size="14.00">invitation_token :string</text>
<text text-anchor="start" x="276" y="-550.4" font-family="Times Roman,serif" font-size="14.00">invitation_sent_at :datetime</text>
<text text-anchor="start" x="276" y="-532.4" font-family="Times Roman,serif" font-size="14.00">invitation_accepted_at :datetime</text>
<text text-anchor="start" x="276" y="-514.4" font-family="Times Roman,serif" font-size="14.00">invitation_limit :integer</text>
<text text-anchor="start" x="276" y="-496.4" font-family="Times Roman,serif" font-size="14.00">invited_by_id :integer</text>
<text text-anchor="start" x="276" y="-478.4" font-family="Times Roman,serif" font-size="14.00">invited_by_type :string</text>
</g>
<!-- Role -->
<g id="node11" class="node"><title>Role</title>
<polyline fill="none" stroke="black" points="324.5,-244 465.5,-244 "/>
<path fill="none" stroke="black" d="M465.5,-244C471.5,-244 477.5,-250 477.5,-256"/>
<polyline fill="none" stroke="black" points="477.5,-256 477.5,-374 "/>
<path fill="none" stroke="black" d="M477.5,-374C477.5,-380 471.5,-386 465.5,-386"/>
<polyline fill="none" stroke="black" points="465.5,-386 324.5,-386 "/>
<path fill="none" stroke="black" d="M324.5,-386C318.5,-386 312.5,-380 312.5,-374"/>
<polyline fill="none" stroke="black" points="312.5,-374 312.5,-256 "/>
<path fill="none" stroke="black" d="M312.5,-256C312.5,-250 318.5,-244 324.5,-244"/>
<text text-anchor="middle" x="395" y="-369.4" font-family="Times Roman,serif" font-size="14.00">Role</text>
<polyline fill="none" stroke="black" points="312.5,-360 477.5,-360 "/>
<text text-anchor="start" x="320.5" y="-343.4" font-family="Times Roman,serif" font-size="14.00">id :integer</text>
<text text-anchor="start" x="320.5" y="-325.4" font-family="Times Roman,serif" font-size="14.00">name :string</text>
<text text-anchor="start" x="320.5" y="-307.4" font-family="Times Roman,serif" font-size="14.00">resource_id :integer</text>
<text text-anchor="start" x="320.5" y="-289.4" font-family="Times Roman,serif" font-size="14.00">resource_type :string</text>
<text text-anchor="start" x="320.5" y="-271.4" font-family="Times Roman,serif" font-size="14.00">created_at :datetime</text>
<text text-anchor="start" x="320.5" y="-253.4" font-family="Times Roman,serif" font-size="14.00">updated_at :datetime</text>
</g>
<!-- User&#45;&gt;Role -->
<g id="edge2" class="edge"><title>User&#45;&gt;Role</title>
<path fill="none" stroke="#605044" d="M395,-458.953C395,-436.928 395,-415.587 395,-396.383"/>
<polygon fill="#605044" stroke="#605044" points="395,-458.954 390.5,-468.954 395,-463.954 395,-468.954 395,-468.954 395,-468.954 395,-463.954 399.5,-468.954 395,-458.954 395,-458.954"/>
<polygon fill="#605044" stroke="#605044" points="395,-396.243 399.5,-386.243 395,-391.243 395,-386.243 395,-386.243 395,-386.243 395,-391.243 390.5,-386.243 395,-396.243 395,-396.243"/>
</g>
<!-- EmailThread -->
<g id="node3" class="node"><title>EmailThread</title>
<polyline fill="none" stroke="black" points="506.5,-253 647.5,-253 "/>
<path fill="none" stroke="black" d="M647.5,-253C653.5,-253 659.5,-259 659.5,-265"/>
<polyline fill="none" stroke="black" points="659.5,-265 659.5,-365 "/>
<path fill="none" stroke="black" d="M659.5,-365C659.5,-371 653.5,-377 647.5,-377"/>
<polyline fill="none" stroke="black" points="647.5,-377 506.5,-377 "/>
<path fill="none" stroke="black" d="M506.5,-377C500.5,-377 494.5,-371 494.5,-365"/>
<polyline fill="none" stroke="black" points="494.5,-365 494.5,-265 "/>
<path fill="none" stroke="black" d="M494.5,-265C494.5,-259 500.5,-253 506.5,-253"/>
<text text-anchor="middle" x="577" y="-360.4" font-family="Times Roman,serif" font-size="14.00">EmailThread</text>
<polyline fill="none" stroke="black" points="494.5,-351 659.5,-351 "/>
<text text-anchor="start" x="502.5" y="-334.4" font-family="Times Roman,serif" font-size="14.00">id :integer</text>
<text text-anchor="start" x="502.5" y="-316.4" font-family="Times Roman,serif" font-size="14.00">email :string</text>
<text text-anchor="start" x="502.5" y="-298.4" font-family="Times Roman,serif" font-size="14.00">name :string</text>
<text text-anchor="start" x="502.5" y="-280.4" font-family="Times Roman,serif" font-size="14.00">created_at :datetime</text>
<text text-anchor="start" x="502.5" y="-262.4" font-family="Times Roman,serif" font-size="14.00">updated_at :datetime</text>
</g>
<!-- AccessCredentials -->
<g id="node4" class="node"><title>AccessCredentials</title>
<polyline fill="none" stroke="black" points="908.5,-613 1049.5,-613 "/>
<path fill="none" stroke="black" d="M1049.5,-613C1055.5,-613 1061.5,-619 1061.5,-625"/>
<polyline fill="none" stroke="black" points="1061.5,-625 1061.5,-707 "/>
<path fill="none" stroke="black" d="M1061.5,-707C1061.5,-713 1055.5,-719 1049.5,-719"/>
<polyline fill="none" stroke="black" points="1049.5,-719 908.5,-719 "/>
<path fill="none" stroke="black" d="M908.5,-719C902.5,-719 896.5,-713 896.5,-707"/>
<polyline fill="none" stroke="black" points="896.5,-707 896.5,-625 "/>
<path fill="none" stroke="black" d="M896.5,-625C896.5,-619 902.5,-613 908.5,-613"/>
<text text-anchor="middle" x="979" y="-702.4" font-family="Times Roman,serif" font-size="14.00">AccessCredentials</text>
<polyline fill="none" stroke="black" points="896.5,-693 1061.5,-693 "/>
<text text-anchor="start" x="904.5" y="-676.4" font-family="Times Roman,serif" font-size="14.00">id :integer</text>
<text text-anchor="start" x="904.5" y="-658.4" font-family="Times Roman,serif" font-size="14.00">properties :text</text>
<text text-anchor="start" x="904.5" y="-640.4" font-family="Times Roman,serif" font-size="14.00">created_at :datetime</text>
<text text-anchor="start" x="904.5" y="-622.4" font-family="Times Roman,serif" font-size="14.00">updated_at :datetime</text>
</g>
<!-- Property -->
<g id="node8" class="node"><title>Property</title>
<polyline fill="none" stroke="black" points="908.5,-235 1049.5,-235 "/>
<path fill="none" stroke="black" d="M1049.5,-235C1055.5,-235 1061.5,-241 1061.5,-247"/>
<polyline fill="none" stroke="black" points="1061.5,-247 1061.5,-383 "/>
<path fill="none" stroke="black" d="M1061.5,-383C1061.5,-389 1055.5,-395 1049.5,-395"/>
<polyline fill="none" stroke="black" points="1049.5,-395 908.5,-395 "/>
<path fill="none" stroke="black" d="M908.5,-395C902.5,-395 896.5,-389 896.5,-383"/>
<polyline fill="none" stroke="black" points="896.5,-383 896.5,-247 "/>
<path fill="none" stroke="black" d="M896.5,-247C896.5,-241 902.5,-235 908.5,-235"/>
<text text-anchor="middle" x="979" y="-378.4" font-family="Times Roman,serif" font-size="14.00">Property</text>
<polyline fill="none" stroke="black" points="896.5,-369 1061.5,-369 "/>
<text text-anchor="start" x="904.5" y="-352.4" font-family="Times Roman,serif" font-size="14.00">id :integer</text>
<text text-anchor="start" x="904.5" y="-334.4" font-family="Times Roman,serif" font-size="14.00">name :string</text>
<text text-anchor="start" x="904.5" y="-316.4" font-family="Times Roman,serif" font-size="14.00">owner_type :string</text>
<text text-anchor="start" x="904.5" y="-298.4" font-family="Times Roman,serif" font-size="14.00">owner_id :integer</text>
<text text-anchor="start" x="904.5" y="-280.4" font-family="Times Roman,serif" font-size="14.00">data :text</text>
<text text-anchor="start" x="904.5" y="-262.4" font-family="Times Roman,serif" font-size="14.00">created_at :datetime</text>
<text text-anchor="start" x="904.5" y="-244.4" font-family="Times Roman,serif" font-size="14.00">updated_at :datetime</text>
</g>
<!-- AccessCredentials&#45;&gt;Property -->
<g id="edge4" class="edge"><title>AccessCredentials&#45;&gt;Property</title>
<path fill="none" stroke="#016948" d="M979,-604.334C979,-549.278 979,-467.931 979,-405.503"/>
<ellipse fill="none" stroke="#016948" cx="979" cy="-608.691" rx="4" ry="4"/>
<polygon fill="#016948" stroke="#016948" points="979,-405.26 983.5,-395.26 979,-400.26 979,-395.26 979,-395.26 979,-395.26 979,-400.26 974.5,-395.26 979,-405.26 979,-405.26"/>
</g>
<!-- Attachment -->
<g id="node5" class="node"><title>Attachment</title>
<polyline fill="none" stroke="black" points="616.5,-1 757.5,-1 "/>
<path fill="none" stroke="black" d="M757.5,-1C763.5,-1 769.5,-7 769.5,-13"/>
<polyline fill="none" stroke="black" points="769.5,-13 769.5,-149 "/>
<path fill="none" stroke="black" d="M769.5,-149C769.5,-155 763.5,-161 757.5,-161"/>
<polyline fill="none" stroke="black" points="757.5,-161 616.5,-161 "/>
<path fill="none" stroke="black" d="M616.5,-161C610.5,-161 604.5,-155 604.5,-149"/>
<polyline fill="none" stroke="black" points="604.5,-149 604.5,-13 "/>
<path fill="none" stroke="black" d="M604.5,-13C604.5,-7 610.5,-1 616.5,-1"/>
<text text-anchor="middle" x="687" y="-144.4" font-family="Times Roman,serif" font-size="14.00">Attachment</text>
<polyline fill="none" stroke="black" points="604.5,-135 769.5,-135 "/>
<text text-anchor="start" x="612.5" y="-118.4" font-family="Times Roman,serif" font-size="14.00">id :integer</text>
<text text-anchor="start" x="612.5" y="-100.4" font-family="Times Roman,serif" font-size="14.00">name :string</text>
<text text-anchor="start" x="612.5" y="-82.4" font-family="Times Roman,serif" font-size="14.00">url :string</text>
<text text-anchor="start" x="612.5" y="-64.4" font-family="Times Roman,serif" font-size="14.00">type :string</text>
<text text-anchor="start" x="612.5" y="-46.4" font-family="Times Roman,serif" font-size="14.00">task_id :integer</text>
<text text-anchor="start" x="612.5" y="-28.4" font-family="Times Roman,serif" font-size="14.00">created_at :datetime</text>
<text text-anchor="start" x="612.5" y="-10.4" font-family="Times Roman,serif" font-size="14.00">updated_at :datetime</text>
</g>
<!-- Task -->
<g id="node6" class="node"><title>Task</title>
<polyline fill="none" stroke="black" points="726.5,-199 867.5,-199 "/>
<path fill="none" stroke="black" d="M867.5,-199C873.5,-199 879.5,-205 879.5,-211"/>
<polyline fill="none" stroke="black" points="879.5,-211 879.5,-419 "/>
<path fill="none" stroke="black" d="M879.5,-419C879.5,-425 873.5,-431 867.5,-431"/>
<polyline fill="none" stroke="black" points="867.5,-431 726.5,-431 "/>
<path fill="none" stroke="black" d="M726.5,-431C720.5,-431 714.5,-425 714.5,-419"/>
<polyline fill="none" stroke="black" points="714.5,-419 714.5,-211 "/>
<path fill="none" stroke="black" d="M714.5,-211C714.5,-205 720.5,-199 726.5,-199"/>
<text text-anchor="middle" x="797" y="-414.4" font-family="Times Roman,serif" font-size="14.00">Task</text>
<polyline fill="none" stroke="black" points="714.5,-405 879.5,-405 "/>
<text text-anchor="start" x="722.5" y="-388.4" font-family="Times Roman,serif" font-size="14.00">id :integer</text>
<text text-anchor="start" x="722.5" y="-370.4" font-family="Times Roman,serif" font-size="14.00">ticket_id :integer</text>
<text text-anchor="start" x="722.5" y="-352.4" font-family="Times Roman,serif" font-size="14.00">quoted_time :float</text>
<text text-anchor="start" x="722.5" y="-334.4" font-family="Times Roman,serif" font-size="14.00">real_time :float</text>
<text text-anchor="start" x="722.5" y="-316.4" font-family="Times Roman,serif" font-size="14.00">content :text</text>
<text text-anchor="start" x="722.5" y="-298.4" font-family="Times Roman,serif" font-size="14.00">task_state :integer</text>
<text text-anchor="start" x="722.5" y="-280.4" font-family="Times Roman,serif" font-size="14.00">task_type_id :integer</text>
<text text-anchor="start" x="722.5" y="-262.4" font-family="Times Roman,serif" font-size="14.00">quoted_by :integer</text>
<text text-anchor="start" x="722.5" y="-244.4" font-family="Times Roman,serif" font-size="14.00">done_by :integer</text>
<text text-anchor="start" x="722.5" y="-226.4" font-family="Times Roman,serif" font-size="14.00">created_at :datetime</text>
<text text-anchor="start" x="722.5" y="-208.4" font-family="Times Roman,serif" font-size="14.00">updated_at :datetime</text>
</g>
<!-- Task&#45;&gt;Attachment -->
<g id="edge6" class="edge"><title>Task&#45;&gt;Attachment</title>
<path fill="none" stroke="#e1736c" d="M738.817,-191.229C735.511,-184.195 732.22,-177.195 728.992,-170.329"/>
<ellipse fill="none" stroke="#e1736c" cx="740.621" cy="-195.066" rx="4.00002" ry="4.00002"/>
<polygon fill="#e1736c" stroke="#e1736c" points="728.889,-170.11 728.708,-159.146 726.762,-165.585 724.635,-161.06 724.635,-161.06 724.635,-161.06 726.762,-165.585 720.563,-162.975 728.889,-170.11 728.889,-170.11"/>
</g>
<!-- Comment -->
<g id="node13" class="node"><title>Comment</title>
<polyline fill="none" stroke="black" points="798.5,-10 939.5,-10 "/>
<path fill="none" stroke="black" d="M939.5,-10C945.5,-10 951.5,-16 951.5,-22"/>
<polyline fill="none" stroke="black" points="951.5,-22 951.5,-140 "/>
<path fill="none" stroke="black" d="M951.5,-140C951.5,-146 945.5,-152 939.5,-152"/>
<polyline fill="none" stroke="black" points="939.5,-152 798.5,-152 "/>
<path fill="none" stroke="black" d="M798.5,-152C792.5,-152 786.5,-146 786.5,-140"/>
<polyline fill="none" stroke="black" points="786.5,-140 786.5,-22 "/>
<path fill="none" stroke="black" d="M786.5,-22C786.5,-16 792.5,-10 798.5,-10"/>
<text text-anchor="middle" x="869" y="-135.4" font-family="Times Roman,serif" font-size="14.00">Comment</text>
<polyline fill="none" stroke="black" points="786.5,-126 951.5,-126 "/>
<text text-anchor="start" x="794.5" y="-109.4" font-family="Times Roman,serif" font-size="14.00">id :integer</text>
<text text-anchor="start" x="794.5" y="-91.4" font-family="Times Roman,serif" font-size="14.00">task_id :integer</text>
<text text-anchor="start" x="794.5" y="-73.4" font-family="Times Roman,serif" font-size="14.00">content :text</text>
<text text-anchor="start" x="794.5" y="-55.4" font-family="Times Roman,serif" font-size="14.00">user_id :integer</text>
<text text-anchor="start" x="794.5" y="-37.4" font-family="Times Roman,serif" font-size="14.00">created_at :datetime</text>
<text text-anchor="start" x="794.5" y="-19.4" font-family="Times Roman,serif" font-size="14.00">updated_at :datetime</text>
</g>
<!-- Task&#45;&gt;Comment -->
<g id="edge8" class="edge"><title>Task&#45;&gt;Comment</title>
<path fill="none" stroke="#9cded5" d="M835.185,-190.899C838.202,-181.094 841.198,-171.356 844.089,-161.962"/>
<ellipse fill="none" stroke="#9cded5" cx="833.965" cy="-194.862" rx="4.00001" ry="4.00001"/>
<polygon fill="#9cded5" stroke="#9cded5" points="844.118,-161.865 851.36,-153.631 845.589,-157.086 847.059,-152.308 847.059,-152.308 847.059,-152.308 845.589,-157.086 842.758,-150.984 844.118,-161.865 844.118,-161.865"/>
</g>
<!-- TaskType -->
<g id="node7" class="node"><title>TaskType</title>
<polyline fill="none" stroke="black" points="1090.5,-604 1231.5,-604 "/>
<path fill="none" stroke="black" d="M1231.5,-604C1237.5,-604 1243.5,-610 1243.5,-616"/>
<polyline fill="none" stroke="black" points="1243.5,-616 1243.5,-716 "/>
<path fill="none" stroke="black" d="M1243.5,-716C1243.5,-722 1237.5,-728 1231.5,-728"/>
<polyline fill="none" stroke="black" points="1231.5,-728 1090.5,-728 "/>
<path fill="none" stroke="black" d="M1090.5,-728C1084.5,-728 1078.5,-722 1078.5,-716"/>
<polyline fill="none" stroke="black" points="1078.5,-716 1078.5,-616 "/>
<path fill="none" stroke="black" d="M1078.5,-616C1078.5,-610 1084.5,-604 1090.5,-604"/>
<text text-anchor="middle" x="1161" y="-711.4" font-family="Times Roman,serif" font-size="14.00">TaskType</text>
<polyline fill="none" stroke="black" points="1078.5,-702 1243.5,-702 "/>
<text text-anchor="start" x="1086.5" y="-685.4" font-family="Times Roman,serif" font-size="14.00">id :integer</text>
<text text-anchor="start" x="1086.5" y="-667.4" font-family="Times Roman,serif" font-size="14.00">name :string</text>
<text text-anchor="start" x="1086.5" y="-649.4" font-family="Times Roman,serif" font-size="14.00">image :string</text>
<text text-anchor="start" x="1086.5" y="-631.4" font-family="Times Roman,serif" font-size="14.00">created_at :datetime</text>
<text text-anchor="start" x="1086.5" y="-613.4" font-family="Times Roman,serif" font-size="14.00">updated_at :datetime</text>
</g>
<!-- Client -->
<g id="node9" class="node"><title>Client</title>
<polyline fill="none" stroke="black" points="1272.5,-604 1413.5,-604 "/>
<path fill="none" stroke="black" d="M1413.5,-604C1419.5,-604 1425.5,-610 1425.5,-616"/>
<polyline fill="none" stroke="black" points="1425.5,-616 1425.5,-716 "/>
<path fill="none" stroke="black" d="M1425.5,-716C1425.5,-722 1419.5,-728 1413.5,-728"/>
<polyline fill="none" stroke="black" points="1413.5,-728 1272.5,-728 "/>
<path fill="none" stroke="black" d="M1272.5,-728C1266.5,-728 1260.5,-722 1260.5,-716"/>
<polyline fill="none" stroke="black" points="1260.5,-716 1260.5,-616 "/>
<path fill="none" stroke="black" d="M1260.5,-616C1260.5,-610 1266.5,-604 1272.5,-604"/>
<text text-anchor="middle" x="1343" y="-711.4" font-family="Times Roman,serif" font-size="14.00">Client</text>
<polyline fill="none" stroke="black" points="1260.5,-702 1425.5,-702 "/>
<text text-anchor="start" x="1268.5" y="-685.4" font-family="Times Roman,serif" font-size="14.00">id :integer</text>
<text text-anchor="start" x="1268.5" y="-667.4" font-family="Times Roman,serif" font-size="14.00">name :string</text>
<text text-anchor="start" x="1268.5" y="-649.4" font-family="Times Roman,serif" font-size="14.00">email :string</text>
<text text-anchor="start" x="1268.5" y="-631.4" font-family="Times Roman,serif" font-size="14.00">created_at :datetime</text>
<text text-anchor="start" x="1268.5" y="-613.4" font-family="Times Roman,serif" font-size="14.00">updated_at :datetime</text>
</g>
<!-- Site -->
<g id="node12" class="node"><title>Site</title>
<polyline fill="none" stroke="black" points="1272.5,-253 1413.5,-253 "/>
<path fill="none" stroke="black" d="M1413.5,-253C1419.5,-253 1425.5,-259 1425.5,-265"/>
<polyline fill="none" stroke="black" points="1425.5,-265 1425.5,-365 "/>
<path fill="none" stroke="black" d="M1425.5,-365C1425.5,-371 1419.5,-377 1413.5,-377"/>
<polyline fill="none" stroke="black" points="1413.5,-377 1272.5,-377 "/>
<path fill="none" stroke="black" d="M1272.5,-377C1266.5,-377 1260.5,-371 1260.5,-365"/>
<polyline fill="none" stroke="black" points="1260.5,-365 1260.5,-265 "/>
<path fill="none" stroke="black" d="M1260.5,-265C1260.5,-259 1266.5,-253 1272.5,-253"/>
<text text-anchor="middle" x="1343" y="-360.4" font-family="Times Roman,serif" font-size="14.00">Site</text>
<polyline fill="none" stroke="black" points="1260.5,-351 1425.5,-351 "/>
<text text-anchor="start" x="1268.5" y="-334.4" font-family="Times Roman,serif" font-size="14.00">id :integer</text>
<text text-anchor="start" x="1268.5" y="-316.4" font-family="Times Roman,serif" font-size="14.00">url :string</text>
<text text-anchor="start" x="1268.5" y="-298.4" font-family="Times Roman,serif" font-size="14.00">client_id :integer</text>
<text text-anchor="start" x="1268.5" y="-280.4" font-family="Times Roman,serif" font-size="14.00">created_at :datetime</text>
<text text-anchor="start" x="1268.5" y="-262.4" font-family="Times Roman,serif" font-size="14.00">updated_at :datetime</text>
</g>
<!-- Client&#45;&gt;Site -->
<g id="edge10" class="edge"><title>Client&#45;&gt;Site</title>
<path fill="none" stroke="#ba75d2" d="M1343,-595.615C1343,-535.174 1343,-448.394 1343,-387.382"/>
<ellipse fill="none" stroke="#ba75d2" cx="1343" cy="-599.653" rx="4" ry="4"/>
<polygon fill="#ba75d2" stroke="#ba75d2" points="1343,-387.062 1347.5,-377.061 1343,-382.062 1343,-377.062 1343,-377.062 1343,-377.062 1343,-382.062 1338.5,-377.062 1343,-387.062 1343,-387.062"/>
</g>
<!-- Ability -->
<g id="node10" class="node"><title>Ability</title>
<polygon fill="none" stroke="black" points="1443,-640 1443,-692 1503,-692 1503,-640 1443,-640"/>
<text text-anchor="middle" x="1473" y="-675.4" font-family="Times Roman,serif" font-size="14.00">Ability</text>
<polyline fill="none" stroke="black" points="1443,-666 1503,-666 "/>
<text text-anchor="middle" x="1473" y="-649.4" font-family="Times Roman,serif" font-size="14.00"> </text>
</g>
<!-- AccessCredential -->
<g id="node22" class="node"><title>AccessCredential</title>
<ellipse fill="none" stroke="black" cx="1343" cy="-81" rx="92.839" ry="18.3848"/>
<text text-anchor="middle" x="1343" y="-77.4" font-family="Times Roman,serif" font-size="14.00">AccessCredential</text>
</g>
<!-- Site&#45;&gt;AccessCredential -->
<g id="edge12" class="edge"><title>Site&#45;&gt;AccessCredential</title>
<path fill="none" stroke="#3701e9" d="M1343,-244.667C1343,-199.611 1343,-143.513 1343,-110.069"/>
<ellipse fill="none" stroke="#3701e9" cx="1343" cy="-248.907" rx="4" ry="4"/>
<polygon fill="#3701e9" stroke="#3701e9" points="1343,-109.645 1347.5,-99.6445 1343,-104.645 1343,-99.6446 1343,-99.6446 1343,-99.6446 1343,-104.645 1338.5,-99.6446 1343,-109.645 1343,-109.645"/>
</g>
<!-- Ticket -->
<g id="node14" class="node"><title>Ticket</title>
<polyline fill="none" stroke="black" points="671.5,-595 812.5,-595 "/>
<path fill="none" stroke="black" d="M812.5,-595C818.5,-595 824.5,-601 824.5,-607"/>
<polyline fill="none" stroke="black" points="824.5,-607 824.5,-725 "/>
<path fill="none" stroke="black" d="M824.5,-725C824.5,-731 818.5,-737 812.5,-737"/>
<polyline fill="none" stroke="black" points="812.5,-737 671.5,-737 "/>
<path fill="none" stroke="black" d="M671.5,-737C665.5,-737 659.5,-731 659.5,-725"/>
<polyline fill="none" stroke="black" points="659.5,-725 659.5,-607 "/>
<path fill="none" stroke="black" d="M659.5,-607C659.5,-601 665.5,-595 671.5,-595"/>
<text text-anchor="middle" x="742" y="-720.4" font-family="Times Roman,serif" font-size="14.00">Ticket</text>
<polyline fill="none" stroke="black" points="659.5,-711 824.5,-711 "/>
<text text-anchor="start" x="667.5" y="-694.4" font-family="Times Roman,serif" font-size="14.00">id :integer</text>
<text text-anchor="start" x="667.5" y="-676.4" font-family="Times Roman,serif" font-size="14.00">name :string</text>
<text text-anchor="start" x="667.5" y="-658.4" font-family="Times Roman,serif" font-size="14.00">client_id :integer</text>
<text text-anchor="start" x="667.5" y="-640.4" font-family="Times Roman,serif" font-size="14.00">site :integer</text>
<text text-anchor="start" x="667.5" y="-622.4" font-family="Times Roman,serif" font-size="14.00">created_at :datetime</text>
<text text-anchor="start" x="667.5" y="-604.4" font-family="Times Roman,serif" font-size="14.00">updated_at :datetime</text>
</g>
<!-- Ticket&#45;&gt;EmailThread -->
<g id="edge18" class="edge"><title>Ticket&#45;&gt;EmailThread</title>
<path fill="none" stroke="#439285" d="M705.029,-587.352C676.695,-527.079 637.931,-444.617 610.501,-386.265"/>
<ellipse fill="none" stroke="#439285" cx="706.908" cy="-591.35" rx="4.00002" ry="4.00002"/>
<polygon fill="#439285" stroke="#439285" points="610.453,-386.164 610.271,-375.199 608.326,-381.639 606.199,-377.114 606.199,-377.114 606.199,-377.114 608.326,-381.639 602.126,-379.028 610.453,-386.164 610.453,-386.164"/>
</g>
<!-- Ticket&#45;&gt;Attachment -->
<g id="edge16" class="edge"><title>Ticket&#45;&gt;Attachment</title>
<path fill="none" stroke="#bc3763" d="M727.498,-584.829C719.982,-539.919 711.293,-483.027 706,-432 696.848,-343.77 691.963,-242.577 689.451,-171.585"/>
<polygon fill="#bc3763" stroke="#bc3763" points="727.517,-584.945 724.743,-595.554 728.349,-589.875 729.181,-594.805 729.181,-594.805 729.181,-594.805 728.349,-589.875 733.618,-594.057 727.517,-584.945 727.517,-584.945"/>
<polygon fill="#bc3763" stroke="#bc3763" points="689.442,-171.329 693.594,-161.18 689.269,-166.332 689.097,-161.335 689.097,-161.335 689.097,-161.335 689.269,-166.332 684.6,-161.49 689.442,-171.329 689.442,-171.329"/>
</g>
<!-- Ticket&#45;&gt;Task -->
<g id="edge14" class="edge"><title>Ticket&#45;&gt;Task</title>
<path fill="none" stroke="#06027a" d="M754.404,-586.841C761.135,-543.882 769.615,-489.764 777.234,-441.146"/>
<ellipse fill="none" stroke="#06027a" cx="753.749" cy="-591.018" rx="4.00001" ry="4.00001"/>
<polygon fill="#06027a" stroke="#06027a" points="777.247,-441.06 783.241,-431.878 778.021,-436.121 778.795,-431.181 778.795,-431.181 778.795,-431.181 778.021,-436.121 774.349,-430.484 777.247,-441.06 777.247,-441.06"/>
</g>
<!-- Ticket&#45;&gt;Property -->
<g id="edge20" class="edge"><title>Ticket&#45;&gt;Property</title>
<path fill="none" stroke="#f2a4b0" d="M794.613,-588.079C831.449,-533.525 880.736,-460.531 919.085,-403.735"/>
<ellipse fill="none" stroke="#f2a4b0" cx="792.199" cy="-591.655" rx="4.00002" ry="4.00002"/>
<polygon fill="#f2a4b0" stroke="#f2a4b0" points="919.305,-403.409 928.631,-397.639 922.103,-399.265 924.901,-395.121 924.901,-395.121 924.901,-395.121 922.103,-399.265 921.172,-392.603 919.305,-403.409 919.305,-403.409"/>
</g>
<!-- TaskState -->
<g id="node15" class="node"><title>TaskState</title>
<polyline fill="none" stroke="black" points="1532.5,-613 1673.5,-613 "/>
<path fill="none" stroke="black" d="M1673.5,-613C1679.5,-613 1685.5,-619 1685.5,-625"/>
<polyline fill="none" stroke="black" points="1685.5,-625 1685.5,-707 "/>
<path fill="none" stroke="black" d="M1685.5,-707C1685.5,-713 1679.5,-719 1673.5,-719"/>
<polyline fill="none" stroke="black" points="1673.5,-719 1532.5,-719 "/>
<path fill="none" stroke="black" d="M1532.5,-719C1526.5,-719 1520.5,-713 1520.5,-707"/>
<polyline fill="none" stroke="black" points="1520.5,-707 1520.5,-625 "/>
<path fill="none" stroke="black" d="M1520.5,-625C1520.5,-619 1526.5,-613 1532.5,-613"/>
<text text-anchor="middle" x="1603" y="-702.4" font-family="Times Roman,serif" font-size="14.00">TaskState</text>
<polyline fill="none" stroke="black" points="1520.5,-693 1685.5,-693 "/>
<text text-anchor="start" x="1528.5" y="-676.4" font-family="Times Roman,serif" font-size="14.00">id :integer</text>
<text text-anchor="start" x="1528.5" y="-658.4" font-family="Times Roman,serif" font-size="14.00">name :string</text>
<text text-anchor="start" x="1528.5" y="-640.4" font-family="Times Roman,serif" font-size="14.00">created_at :datetime</text>
<text text-anchor="start" x="1528.5" y="-622.4" font-family="Times Roman,serif" font-size="14.00">updated_at :datetime</text>
</g>
</g>
</svg>
