<?xml version="1.0" encoding="UTF-8" standalone="no"?>
<!DOCTYPE svg PUBLIC "-//W3C//DTD SVG 1.1//EN"
 "http://www.w3.org/Graphics/SVG/1.1/DTD/svg11.dtd">
<!-- Generated by graphviz version 2.26.3 (20100126.1600)
 -->
<!-- Title: models_diagram Pages: 1 -->
<svg width="1233pt" height="250pt"
 viewBox="0.00 0.00 1233.00 250.00" xmlns="http://www.w3.org/2000/svg" xmlns:xlink="http://www.w3.org/1999/xlink">
<g id="graph1" class="graph" transform="scale(1 1) rotate(0) translate(4 246)">
<title>models_diagram</title>
<polygon fill="white" stroke="white" points="-4,5 -4,-246 1230,-246 1230,5 -4,5"/>
<!-- _diagram_info -->
<g id="node1" class="node"><title>_diagram_info</title>
<text text-anchor="start" x="8" y="-225.8" font-family="Times Roman,serif" font-size="13.00">Models diagram</text>
<text text-anchor="start" x="8" y="-208.8" font-family="Times Roman,serif" font-size="13.00">Date: Jun 04 2013 &#45; 03:58</text>
<text text-anchor="start" x="8" y="-191.8" font-family="Times Roman,serif" font-size="13.00">Migration version: 20130520173354</text>
<text text-anchor="start" x="8" y="-174.8" font-family="Times Roman,serif" font-size="13.00">Generated by RailRoady 1.1.0</text>
<text text-anchor="start" x="8" y="-157.8" font-family="Times Roman,serif" font-size="13.00">http://railroady.prestonlee.com</text>
</g>
<!-- User -->
<g id="node2" class="node"><title>User</title>
<ellipse fill="none" stroke="black" cx="302" cy="-195" rx="33.9411" ry="18.3848"/>
<text text-anchor="middle" x="302" y="-191.4" font-family="Times Roman,serif" font-size="14.00">User</text>
</g>
<!-- Role -->
<g id="node11" class="node"><title>Role</title>
<ellipse fill="none" stroke="black" cx="302" cy="-93" rx="32.0265" ry="18.3848"/>
<text text-anchor="middle" x="302" y="-89.4" font-family="Times Roman,serif" font-size="14.00">Role</text>
</g>
<!-- User&#45;&gt;Role -->
<g id="edge2" class="edge"><title>User&#45;&gt;Role</title>
<path fill="none" stroke="#8ba451" d="M302,-166.054C302,-152.256 302,-135.791 302,-121.987"/>
<polygon fill="#8ba451" stroke="#8ba451" points="302,-166.292 297.5,-176.292 302,-171.292 302,-176.292 302,-176.292 302,-176.292 302,-171.292 306.5,-176.292 302,-166.292 302,-166.292"/>
<polygon fill="#8ba451" stroke="#8ba451" points="302,-121.59 306.5,-111.59 302,-116.59 302,-111.59 302,-111.59 302,-111.59 302,-116.59 297.5,-111.59 302,-121.59 302,-121.59"/>
</g>
<!-- EmailThread -->
<g id="node3" class="node"><title>EmailThread</title>
<ellipse fill="none" stroke="black" cx="424" cy="-93" rx="72.1249" ry="18.3848"/>
<text text-anchor="middle" x="424" y="-89.4" font-family="Times Roman,serif" font-size="14.00">EmailThread</text>
</g>
<!-- AccessCredentials -->
<g id="node4" class="node"><title>AccessCredentials</title>
<ellipse fill="none" stroke="black" cx="687" cy="-195" rx="97.7889" ry="18.3848"/>
<text text-anchor="middle" x="687" y="-191.4" font-family="Times Roman,serif" font-size="14.00">AccessCredentials</text>
</g>
<!-- Property -->
<g id="node8" class="node"><title>Property</title>
<ellipse fill="none" stroke="black" cx="687" cy="-93" rx="53.2379" ry="18.3848"/>
<text text-anchor="middle" x="687" y="-89.4" font-family="Times Roman,serif" font-size="14.00">Property</text>
</g>
<!-- AccessCredentials&#45;&gt;Property -->
<g id="edge4" class="edge"><title>AccessCredentials&#45;&gt;Property</title>
<path fill="none" stroke="#4fad4a" d="M687,-168.015C687,-153.835 687,-136.445 687,-121.98"/>
<ellipse fill="none" stroke="#4fad4a" cx="687" cy="-172.292" rx="4" ry="4"/>
<polygon fill="#4fad4a" stroke="#4fad4a" points="687,-121.59 691.5,-111.59 687,-116.59 687,-111.59 687,-111.59 687,-111.59 687,-116.59 682.5,-111.59 687,-121.59 687,-121.59"/>
</g>
<!-- Attachment -->
<g id="node5" class="node"><title>Attachment</title>
<ellipse fill="none" stroke="black" cx="524" cy="-19" rx="68.7979" ry="18.3848"/>
<text text-anchor="middle" x="524" y="-15.4" font-family="Times Roman,serif" font-size="14.00">Attachment</text>
</g>
<!-- Task -->
<g id="node6" class="node"><title>Task</title>
<ellipse fill="none" stroke="black" cx="584" cy="-93" rx="32.0265" ry="18.3848"/>
<text text-anchor="middle" x="584" y="-89.4" font-family="Times Roman,serif" font-size="14.00">Task</text>
</g>
<!-- Task&#45;&gt;Attachment -->
<g id="edge6" class="edge"><title>Task&#45;&gt;Attachment</title>
<path fill="none" stroke="#f05dc4" d="M565.291,-69.9261C558.898,-62.0408 551.703,-53.1673 545.132,-45.0631"/>
<ellipse fill="none" stroke="#f05dc4" cx="567.866" cy="-73.1012" rx="4.00002" ry="4.00002"/>
<polygon fill="#f05dc4" stroke="#f05dc4" points="545.12,-45.0478 542.317,-34.4461 541.971,-41.1641 538.822,-37.2803 538.822,-37.2803 538.822,-37.2803 541.971,-41.1641 535.326,-40.1144 545.12,-45.0478 545.12,-45.0478"/>
</g>
<!-- Comment -->
<g id="node13" class="node"><title>Comment</title>
<ellipse fill="none" stroke="black" cx="669" cy="-19" rx="58.1882" ry="18.3848"/>
<text text-anchor="middle" x="669" y="-15.4" font-family="Times Roman,serif" font-size="14.00">Comment</text>
</g>
<!-- Task&#45;&gt;Comment -->
<g id="edge8" class="edge"><title>Task&#45;&gt;Comment</title>
<path fill="none" stroke="#8139e9" d="M608.104,-72.0156C618.379,-63.0704 630.431,-52.5777 641.09,-43.2982"/>
<ellipse fill="none" stroke="#8139e9" cx="605.043" cy="-74.68" rx="4.00002" ry="4.00002"/>
<polygon fill="#8139e9" stroke="#8139e9" points="641.374,-43.0505 651.872,-39.8783 645.146,-39.7673 648.917,-36.4842 648.917,-36.4842 648.917,-36.4842 645.146,-39.7673 645.962,-33.0902 641.374,-43.0505 641.374,-43.0505"/>
</g>
<!-- TaskType -->
<g id="node7" class="node"><title>TaskType</title>
<ellipse fill="none" stroke="black" cx="858" cy="-195" rx="55.1543" ry="18.3848"/>
<text text-anchor="middle" x="858" y="-191.4" font-family="Times Roman,serif" font-size="14.00">TaskType</text>
</g>
<!-- Client -->
<g id="node9" class="node"><title>Client</title>
<ellipse fill="none" stroke="black" cx="971" cy="-195" rx="39.8075" ry="18.3848"/>
<text text-anchor="middle" x="971" y="-191.4" font-family="Times Roman,serif" font-size="14.00">Client</text>
</g>
<!-- Site -->
<g id="node12" class="node"><title>Site</title>
<ellipse fill="none" stroke="black" cx="971" cy="-93" rx="31.1127" ry="18.3848"/>
<text text-anchor="middle" x="971" y="-89.4" font-family="Times Roman,serif" font-size="14.00">Site</text>
</g>
<!-- Client&#45;&gt;Site -->
<g id="edge10" class="edge"><title>Client&#45;&gt;Site</title>
<path fill="none" stroke="#59e49b" d="M971,-168.015C971,-153.835 971,-136.445 971,-121.98"/>
<ellipse fill="none" stroke="#59e49b" cx="971" cy="-172.292" rx="4" ry="4"/>
<polygon fill="#59e49b" stroke="#59e49b" points="971,-121.59 975.5,-111.59 971,-116.59 971,-111.59 971,-111.59 971,-111.59 971,-116.59 966.5,-111.59 971,-121.59 971,-121.59"/>
</g>
<!-- Ability -->
<g id="node10" class="node"><title>Ability</title>
<polygon fill="none" stroke="black" points="1089,-213 1029,-213 1029,-177 1089,-177 1089,-213"/>
<text text-anchor="middle" x="1059" y="-191.4" font-family="Times Roman,serif" font-size="14.00">Ability</text>
</g>
<!-- AccessCredential -->
<g id="node22" class="node"><title>AccessCredential</title>
<ellipse fill="none" stroke="black" cx="971" cy="-19" rx="92.839" ry="18.3848"/>
<text text-anchor="middle" x="971" y="-15.4" font-family="Times Roman,serif" font-size="14.00">AccessCredential</text>
</g>
<!-- Site&#45;&gt;AccessCredential -->
<g id="edge12" class="edge"><title>Site&#45;&gt;AccessCredential</title>
<path fill="none" stroke="#f4b7ef" d="M971,-66.309C971,-60.3769 971,-54.0606 971,-48.0396"/>
<ellipse fill="none" stroke="#f4b7ef" cx="971" cy="-70.3267" rx="4" ry="4"/>
<polygon fill="#f4b7ef" stroke="#f4b7ef" points="971,-47.6674 975.5,-37.6673 971,-42.6674 971,-37.6674 971,-37.6674 971,-37.6674 971,-42.6674 966.5,-37.6674 971,-47.6674 971,-47.6674"/>
</g>
<!-- Ticket -->
<g id="node14" class="node"><title>Ticket</title>
<ellipse fill="none" stroke="black" cx="527" cy="-195" rx="41.0122" ry="18.3848"/>
<text text-anchor="middle" x="527" y="-191.4" font-family="Times Roman,serif" font-size="14.00">Ticket</text>
</g>
<!-- Ticket&#45;&gt;EmailThread -->
<g id="edge18" class="edge"><title>Ticket&#45;&gt;EmailThread</title>
<path fill="none" stroke="#12f7c3" d="M503.994,-172.218C487.893,-156.273 466.369,-134.958 449.704,-118.454"/>
<ellipse fill="none" stroke="#12f7c3" cx="507.149" cy="-175.342" rx="4.00002" ry="4.00002"/>
<polygon fill="#12f7c3" stroke="#12f7c3" points="449.531,-118.283 445.592,-108.049 445.978,-114.765 442.425,-111.247 442.425,-111.247 442.425,-111.247 445.978,-114.765 439.259,-114.444 449.531,-118.283 449.531,-118.283"/>
</g>
<!-- Ticket&#45;&gt;Attachment -->
<g id="edge16" class="edge"><title>Ticket&#45;&gt;Attachment</title>
<path fill="none" stroke="#80a63f" d="M526.507,-166.062C525.949,-133.344 525.046,-80.3928 524.49,-47.7512"/>
<polygon fill="#80a63f" stroke="#80a63f" points="526.514,-166.499 522.185,-176.574 526.599,-171.498 526.685,-176.498 526.685,-176.498 526.685,-176.498 526.599,-171.498 531.184,-176.421 526.514,-166.499 526.514,-166.499"/>
<polygon fill="#80a63f" stroke="#80a63f" points="524.486,-47.5172 528.815,-37.4419 524.401,-42.5179 524.316,-37.5186 524.316,-37.5186 524.316,-37.5186 524.401,-42.5179 519.816,-37.5954 524.486,-47.5172 524.486,-47.5172"/>
</g>
<!-- Ticket&#45;&gt;Task -->
<g id="edge14" class="edge"><title>Ticket&#45;&gt;Task</title>
<path fill="none" stroke="#95231a" d="M541.349,-169.323C549.813,-154.176 560.509,-135.037 569.072,-119.714"/>
<ellipse fill="none" stroke="#95231a" cx="539.142" cy="-173.273" rx="4.00002" ry="4.00002"/>
<polygon fill="#95231a" stroke="#95231a" points="569.21,-119.466 578.017,-112.931 571.65,-115.101 574.089,-110.736 574.089,-110.736 574.089,-110.736 571.65,-115.101 570.16,-108.541 569.21,-119.466 569.21,-119.466"/>
</g>
<!-- Ticket&#45;&gt;Property -->
<g id="edge20" class="edge"><title>Ticket&#45;&gt;Property</title>
<path fill="none" stroke="#3ff596" d="M550.126,-172.219C559.054,-164.05 569.61,-155.11 580,-148 600.089,-134.253 624.062,-121.624 644.22,-111.944"/>
<ellipse fill="none" stroke="#3ff596" cx="547.153" cy="-174.991" rx="4.00002" ry="4.00002"/>
<polygon fill="#3ff596" stroke="#3ff596" points="644.437,-111.842 655.401,-111.643 648.958,-109.708 653.48,-107.574 653.48,-107.574 653.48,-107.574 648.958,-109.708 651.56,-103.504 644.437,-111.842 644.437,-111.842"/>
</g>
<!-- TaskState -->
<g id="node15" class="node"><title>TaskState</title>
<ellipse fill="none" stroke="black" cx="1166" cy="-195" rx="58.8978" ry="18.3848"/>
<text text-anchor="middle" x="1166" y="-191.4" font-family="Times Roman,serif" font-size="14.00">TaskState</text>
</g>
</g>
</svg>
