<?xml version="1.0" encoding="UTF-8" standalone="no"?>
<!DOCTYPE svg PUBLIC "-//W3C//DTD SVG 1.1//EN"
 "http://www.w3.org/Graphics/SVG/1.1/DTD/svg11.dtd">
<!-- Generated by graphviz version 2.30.1 (20130221.2233)
 -->
<!-- Title: models_diagram Pages: 1 -->
<svg width="1176pt" height="238pt"
 viewBox="0.00 0.00 1176.00 238.00" xmlns="http://www.w3.org/2000/svg" xmlns:xlink="http://www.w3.org/1999/xlink">
<g id="graph0" class="graph" transform="scale(1 1) rotate(0) translate(4 234)">
<title>models_diagram</title>
<polygon fill="white" stroke="white" points="-4,5 -4,-234 1173,-234 1173,5 -4,5"/>
<!-- _diagram_info -->
<g id="node1" class="node"><title>_diagram_info</title>
<text text-anchor="start" x="7.78833" y="-213" font-family="Times,serif" font-size="13.00">Models diagram</text>
<text text-anchor="start" x="7.78833" y="-197.4" font-family="Times,serif" font-size="13.00">Date: Jun 19 2013 &#45; 02:49</text>
<text text-anchor="start" x="7.78833" y="-181.8" font-family="Times,serif" font-size="13.00">Migration version: 20130616111312</text>
<text text-anchor="start" x="7.78833" y="-166.2" font-family="Times,serif" font-size="13.00">Generated by RailRoady 1.1.0</text>
<text text-anchor="start" x="7.78833" y="-150.6" font-family="Times,serif" font-size="13.00">http://railroady.prestonlee.com</text>
</g>
<!-- Ability -->
<g id="node2" class="node"><title>Ability</title>
<polygon fill="none" stroke="black" points="279.255,-205 224.745,-205 224.745,-169 279.255,-169 279.255,-205"/>
<text text-anchor="middle" x="252" y="-181.4" font-family="Times,serif" font-size="14.00">Ability</text>
</g>
<!-- AccessCredentials -->
<g id="node3" class="node"><title>AccessCredentials</title>
<ellipse fill="none" stroke="black" cx="380" cy="-187" rx="82.0479" ry="18"/>
<text text-anchor="middle" x="380" y="-181.4" font-family="Times,serif" font-size="14.00">AccessCredentials</text>
</g>
<!-- Property -->
<g id="node9" class="node"><title>Property</title>
<ellipse fill="none" stroke="black" cx="382" cy="-90" rx="43.942" ry="18"/>
<text text-anchor="middle" x="382" y="-84.4" font-family="Times,serif" font-size="14.00">Property</text>
</g>
<!-- AccessCredentials&#45;&gt;Property -->
<g id="edge1" class="edge"><title>AccessCredentials&#45;&gt;Property</title>
<path fill="none" stroke="#47f025" d="M380.539,-160.414C380.81,-147.518 381.14,-131.862 381.417,-118.685"/>
<ellipse fill="none" stroke="#47f025" cx="380.451" cy="-164.576" rx="4" ry="4"/>
<polygon fill="#47f025" stroke="#47f025" points="381.425,-118.312 386.134,-108.409 381.53,-113.313 381.635,-108.314 381.635,-108.314 381.635,-108.314 381.53,-113.313 377.136,-108.219 381.425,-118.312 381.425,-118.312"/>
</g>
<!-- Attachment -->
<g id="node4" class="node"><title>Attachment</title>
<ellipse fill="none" stroke="black" cx="437" cy="-18" rx="56.1299" ry="18"/>
<text text-anchor="middle" x="437" y="-12.4" font-family="Times,serif" font-size="14.00">Attachment</text>
</g>
<!-- Client -->
<g id="node5" class="node"><title>Client</title>
<ellipse fill="none" stroke="black" cx="827" cy="-187" rx="34.4613" ry="18"/>
<text text-anchor="middle" x="827" y="-181.4" font-family="Times,serif" font-size="14.00">Client</text>
</g>
<!-- Site -->
<g id="node11" class="node"><title>Site</title>
<ellipse fill="none" stroke="black" cx="827" cy="-90" rx="27" ry="18"/>
<text text-anchor="middle" x="827" y="-84.4" font-family="Times,serif" font-size="14.00">Site</text>
</g>
<!-- Client&#45;&gt;Site -->
<g id="edge2" class="edge"><title>Client&#45;&gt;Site</title>
<path fill="none" stroke="#b40b79" d="M827,-160.414C827,-147.518 827,-131.862 827,-118.685"/>
<ellipse fill="none" stroke="#b40b79" cx="827" cy="-164.576" rx="4" ry="4"/>
<polygon fill="#b40b79" stroke="#b40b79" points="827,-118.314 831.5,-108.314 827,-113.314 827,-108.314 827,-108.314 827,-108.314 827,-113.314 822.5,-108.314 827,-118.314 827,-118.314"/>
</g>
<!-- Comment -->
<g id="node6" class="node"><title>Comment</title>
<ellipse fill="none" stroke="black" cx="560" cy="-18" rx="49.1903" ry="18"/>
<text text-anchor="middle" x="560" y="-12.4" font-family="Times,serif" font-size="14.00">Comment</text>
</g>
<!-- EmailItem -->
<g id="node7" class="node"><title>EmailItem</title>
<ellipse fill="none" stroke="black" cx="679" cy="-18" rx="51.1958" ry="18"/>
<text text-anchor="middle" x="679" y="-12.4" font-family="Times,serif" font-size="14.00">EmailItem</text>
</g>
<!-- EmailThread -->
<g id="node8" class="node"><title>EmailThread</title>
<ellipse fill="none" stroke="black" cx="659" cy="-90" rx="61.1649" ry="18"/>
<text text-anchor="middle" x="659" y="-84.4" font-family="Times,serif" font-size="14.00">EmailThread</text>
</g>
<!-- EmailThread&#45;&gt;EmailItem -->
<g id="edge3" class="edge"><title>EmailThread&#45;&gt;EmailItem</title>
<path fill="none" stroke="#cab57f" d="M666.066,-64.2675C667.76,-58.34 669.577,-51.9814 671.298,-45.9587"/>
<ellipse fill="none" stroke="#cab57f" cx="664.94" cy="-68.2089" rx="4.00001" ry="4.00001"/>
<polygon fill="#cab57f" stroke="#cab57f" points="671.317,-45.8905 678.391,-37.5116 672.691,-41.0829 674.064,-36.2753 674.064,-36.2753 674.064,-36.2753 672.691,-41.0829 669.737,-35.039 671.317,-45.8905 671.317,-45.8905"/>
</g>
<!-- Role -->
<g id="node10" class="node"><title>Role</title>
<ellipse fill="none" stroke="black" cx="909" cy="-187" rx="28.9157" ry="18"/>
<text text-anchor="middle" x="909" y="-181.4" font-family="Times,serif" font-size="14.00">Role</text>
</g>
<!-- User -->
<g id="node16" class="node"><title>User</title>
<ellipse fill="none" stroke="black" cx="909" cy="-90" rx="28.9087" ry="18"/>
<text text-anchor="middle" x="909" y="-84.4" font-family="Times,serif" font-size="14.00">User</text>
</g>
<!-- Role&#45;&gt;User -->
<g id="edge4" class="edge"><title>Role&#45;&gt;User</title>
<path fill="none" stroke="#ae821e" d="M909,-158.115C909,-145.644 909,-130.986 909,-118.554"/>
<polygon fill="#ae821e" stroke="#ae821e" points="909,-158.576 904.5,-168.575 909,-163.576 909,-168.576 909,-168.576 909,-168.576 909,-163.576 913.5,-168.576 909,-158.576 909,-158.576"/>
<polygon fill="#ae821e" stroke="#ae821e" points="909,-118.314 913.5,-108.314 909,-113.314 909,-108.314 909,-108.314 909,-108.314 909,-113.314 904.5,-108.314 909,-118.314 909,-118.314"/>
</g>
<!-- AccessCredential -->
<g id="node17" class="node"><title>AccessCredential</title>
<ellipse fill="none" stroke="black" cx="827" cy="-18" rx="78.41" ry="18"/>
<text text-anchor="middle" x="827" y="-12.4" font-family="Times,serif" font-size="14.00">AccessCredential</text>
</g>
<!-- Site&#45;&gt;AccessCredential -->
<g id="edge5" class="edge"><title>Site&#45;&gt;AccessCredential</title>
<path fill="none" stroke="#11ece4" d="M827,-63.6398C827,-58.0629 827,-52.1319 827,-46.4761"/>
<ellipse fill="none" stroke="#11ece4" cx="827" cy="-67.6966" rx="4" ry="4"/>
<polygon fill="#11ece4" stroke="#11ece4" points="827,-46.1043 831.5,-36.1043 827,-41.1043 827,-36.1043 827,-36.1043 827,-36.1043 827,-41.1043 822.5,-36.1044 827,-46.1043 827,-46.1043"/>
</g>
<!-- Task -->
<g id="node12" class="node"><title>Task</title>
<ellipse fill="none" stroke="black" cx="516" cy="-90" rx="29.2011" ry="18"/>
<text text-anchor="middle" x="516" y="-84.4" font-family="Times,serif" font-size="14.00">Task</text>
</g>
<!-- Task&#45;&gt;Attachment -->
<g id="edge6" class="edge"><title>Task&#45;&gt;Attachment</title>
<path fill="none" stroke="#df3464" d="M493.912,-69.428C484.273,-60.8875 472.905,-50.8148 462.874,-41.9261"/>
<ellipse fill="none" stroke="#df3464" cx="497.019" cy="-72.1817" rx="4.00002" ry="4.00002"/>
<polygon fill="#df3464" stroke="#df3464" points="462.658,-41.7352 458.158,-31.7353 458.916,-38.4193 455.174,-35.1033 455.174,-35.1033 455.174,-35.1033 458.916,-38.4193 452.189,-38.4714 462.658,-41.7352 462.658,-41.7352"/>
</g>
<!-- Task&#45;&gt;Comment -->
<g id="edge7" class="edge"><title>Task&#45;&gt;Comment</title>
<path fill="none" stroke="#a24862" d="M530.537,-65.8736C534.905,-58.9236 539.719,-51.265 544.167,-44.1885"/>
<ellipse fill="none" stroke="#a24862" cx="528.334" cy="-69.3781" rx="4.00002" ry="4.00002"/>
<polygon fill="#a24862" stroke="#a24862" points="544.223,-44.0998 553.355,-38.0282 546.884,-39.8666 549.545,-35.6334 549.545,-35.6334 549.545,-35.6334 546.884,-39.8666 545.735,-33.2386 544.223,-44.0998 544.223,-44.0998"/>
</g>
<!-- TaskState -->
<g id="node13" class="node"><title>TaskState</title>
<ellipse fill="none" stroke="black" cx="1005" cy="-187" rx="48.1649" ry="18"/>
<text text-anchor="middle" x="1005" y="-181.4" font-family="Times,serif" font-size="14.00">TaskState</text>
</g>
<!-- TaskType -->
<g id="node14" class="node"><title>TaskType</title>
<ellipse fill="none" stroke="black" cx="1120" cy="-187" rx="47.9538" ry="18"/>
<text text-anchor="middle" x="1120" y="-181.4" font-family="Times,serif" font-size="14.00">TaskType</text>
</g>
<!-- Ticket -->
<g id="node15" class="node"><title>Ticket</title>
<ellipse fill="none" stroke="black" cx="516" cy="-187" rx="35.0524" ry="18"/>
<text text-anchor="middle" x="516" y="-181.4" font-family="Times,serif" font-size="14.00">Ticket</text>
</g>
<!-- Ticket&#45;&gt;Task -->
<g id="edge8" class="edge"><title>Ticket&#45;&gt;Task</title>
<path fill="none" stroke="#d0753a" d="M516,-160.414C516,-147.518 516,-131.862 516,-118.685"/>
<ellipse fill="none" stroke="#d0753a" cx="516" cy="-164.576" rx="4" ry="4"/>
<polygon fill="#d0753a" stroke="#d0753a" points="516,-118.314 520.5,-108.314 516,-113.314 516,-108.314 516,-108.314 516,-108.314 516,-113.314 511.5,-108.314 516,-118.314 516,-118.314"/>
</g>
<!-- Ticket&#45;&gt;Attachment -->
<g id="edge9" class="edge"><title>Ticket&#45;&gt;Attachment</title>
<path fill="none" stroke="#3a301d" d="M503.187,-160.057C495.752,-144.914 486.254,-125.419 478,-108 468.043,-86.9864 457.03,-63.0399 448.927,-45.2831"/>
<polygon fill="#3a301d" stroke="#3a301d" points="503.326,-160.341 503.703,-171.3 505.534,-164.827 507.741,-169.313 507.741,-169.313 507.741,-169.313 505.534,-164.827 511.779,-167.327 503.326,-160.341 503.326,-160.341"/>
<polygon fill="#3a301d" stroke="#3a301d" points="448.896,-45.2135 448.846,-34.2477 446.823,-40.6632 444.751,-36.113 444.751,-36.113 444.751,-36.113 446.823,-40.6632 440.655,-37.9782 448.896,-45.2135 448.896,-45.2135"/>
</g>
<!-- Ticket&#45;&gt;EmailThread -->
<g id="edge10" class="edge"><title>Ticket&#45;&gt;EmailThread</title>
<path fill="none" stroke="#0c7585" d="M543.594,-167.668C567.412,-151.845 601.836,-128.976 626.886,-112.335"/>
<ellipse fill="none" stroke="#0c7585" cx="540.125" cy="-169.973" rx="4.00002" ry="4.00002"/>
<polygon fill="#0c7585" stroke="#0c7585" points="626.993,-112.263 637.813,-110.478 631.158,-109.497 635.323,-106.73 635.323,-106.73 635.323,-106.73 631.158,-109.497 632.832,-102.982 626.993,-112.263 626.993,-112.263"/>
</g>
<!-- Ticket&#45;&gt;Property -->
<g id="edge11" class="edge"><title>Ticket&#45;&gt;Property</title>
<path fill="none" stroke="#56dc9e" d="M495.051,-164.696C487.736,-157.742 479.279,-150.216 471,-144 454.133,-131.336 434.041,-119.152 417.219,-109.666"/>
<ellipse fill="none" stroke="#56dc9e" cx="498.025" cy="-167.578" rx="4.00002" ry="4.00002"/>
<polygon fill="#56dc9e" stroke="#56dc9e" points="416.995,-109.541 410.436,-100.753 412.623,-107.114 408.251,-104.687 408.251,-104.687 408.251,-104.687 412.623,-107.114 406.067,-108.622 416.995,-109.541 416.995,-109.541"/>
</g>
</g>
</svg>
