<?xml version="1.0" encoding="UTF-8" standalone="no"?>
<!DOCTYPE svg PUBLIC "-//W3C//DTD SVG 1.1//EN"
 "http://www.w3.org/Graphics/SVG/1.1/DTD/svg11.dtd">
<!-- Generated by graphviz version 2.30.1 (20130221.2233)
 -->
<!-- Title: models_diagram Pages: 1 -->
<svg width="1491pt" height="840pt"
 viewBox="0.00 0.00 1491.00 840.00" xmlns="http://www.w3.org/2000/svg" xmlns:xlink="http://www.w3.org/1999/xlink">
<g id="graph0" class="graph" transform="scale(1 1) rotate(0) translate(4 836)">
<title>models_diagram</title>
<polygon fill="white" stroke="white" points="-4,5 -4,-836 1488,-836 1488,5 -4,5"/>
<!-- _diagram_info -->
<g id="node1" class="node"><title>_diagram_info</title>
<text text-anchor="start" x="7.78833" y="-782" font-family="Times,serif" font-size="13.00">Models diagram</text>
<text text-anchor="start" x="7.78833" y="-766.4" font-family="Times,serif" font-size="13.00">Date: Jun 19 2013 &#45; 02:49</text>
<text text-anchor="start" x="7.78833" y="-750.8" font-family="Times,serif" font-size="13.00">Migration version: 20130616111312</text>
<text text-anchor="start" x="7.78833" y="-735.2" font-family="Times,serif" font-size="13.00">Generated by RailRoady 1.1.0</text>
<text text-anchor="start" x="7.78833" y="-719.6" font-family="Times,serif" font-size="13.00">http://railroady.prestonlee.com</text>
</g>
<!-- Ability -->
<g id="node2" class="node"><title>Ability</title>
<polygon fill="none" stroke="black" points="224.166,-731.2 224.166,-780.8 279.834,-780.8 279.834,-731.2 224.166,-731.2"/>
<text text-anchor="middle" x="252" y="-762.8" font-family="Times,serif" font-size="14.00">Ability</text>
<polyline fill="none" stroke="black" points="224.166,-756 279.834,-756 "/>
<text text-anchor="middle" x="252" y="-738" font-family="Times,serif" font-size="14.00"> </text>
</g>
<!-- AccessCredentials -->
<g id="node3" class="node"><title>AccessCredentials</title>
<path fill="none" stroke="black" d="M309.495,-706C309.495,-706 418.505,-706 418.505,-706 424.505,-706 430.505,-712 430.505,-718 430.505,-718 430.505,-794 430.505,-794 430.505,-800 424.505,-806 418.505,-806 418.505,-806 309.495,-806 309.495,-806 303.495,-806 297.495,-800 297.495,-794 297.495,-794 297.495,-718 297.495,-718 297.495,-712 303.495,-706 309.495,-706"/>
<text text-anchor="middle" x="364" y="-788" font-family="Times,serif" font-size="14.00">AccessCredentials</text>
<polyline fill="none" stroke="black" points="297.495,-781.2 430.505,-781.2 "/>
<text text-anchor="start" x="305.495" y="-763.2" font-family="Times,serif" font-size="14.00">id :integer</text>
<text text-anchor="start" x="305.495" y="-746.4" font-family="Times,serif" font-size="14.00">properties :text</text>
<text text-anchor="start" x="305.495" y="-729.6" font-family="Times,serif" font-size="14.00">created_at :datetime</text>
<text text-anchor="start" x="305.495" y="-712.8" font-family="Times,serif" font-size="14.00">updated_at :datetime</text>
</g>
<!-- Property -->
<g id="node9" class="node"><title>Property</title>
<path fill="none" stroke="black" d="M309.495,-374.8C309.495,-374.8 418.505,-374.8 418.505,-374.8 424.505,-374.8 430.505,-380.8 430.505,-386.8 430.505,-386.8 430.505,-513.2 430.505,-513.2 430.505,-519.2 424.505,-525.2 418.505,-525.2 418.505,-525.2 309.495,-525.2 309.495,-525.2 303.495,-525.2 297.495,-519.2 297.495,-513.2 297.495,-513.2 297.495,-386.8 297.495,-386.8 297.495,-380.8 303.495,-374.8 309.495,-374.8"/>
<text text-anchor="middle" x="364" y="-507.2" font-family="Times,serif" font-size="14.00">Property</text>
<polyline fill="none" stroke="black" points="297.495,-500.4 430.505,-500.4 "/>
<text text-anchor="start" x="305.495" y="-482.4" font-family="Times,serif" font-size="14.00">id :integer</text>
<text text-anchor="start" x="305.495" y="-465.6" font-family="Times,serif" font-size="14.00">name :string</text>
<text text-anchor="start" x="305.495" y="-448.8" font-family="Times,serif" font-size="14.00">owner_type :string</text>
<text text-anchor="start" x="305.495" y="-432" font-family="Times,serif" font-size="14.00">owner_id :integer</text>
<text text-anchor="start" x="305.495" y="-415.2" font-family="Times,serif" font-size="14.00">data :text</text>
<text text-anchor="start" x="305.495" y="-398.4" font-family="Times,serif" font-size="14.00">created_at :datetime</text>
<text text-anchor="start" x="305.495" y="-381.6" font-family="Times,serif" font-size="14.00">updated_at :datetime</text>
</g>
<!-- AccessCredentials&#45;&gt;Property -->
<g id="edge1" class="edge"><title>AccessCredentials&#45;&gt;Property</title>
<path fill="none" stroke="#852fc2" d="M364,-697.579C364,-651.856 364,-587.185 364,-535.545"/>
<ellipse fill="none" stroke="#852fc2" cx="364" cy="-701.819" rx="4" ry="4"/>
<polygon fill="#852fc2" stroke="#852fc2" points="364,-535.401 368.5,-525.401 364,-530.401 364,-525.401 364,-525.401 364,-525.401 364,-530.401 359.5,-525.401 364,-535.401 364,-535.401"/>
</g>
<!-- Attachment -->
<g id="node4" class="node"><title>Attachment</title>
<path fill="none" stroke="black" d="M388.495,-34.8C388.495,-34.8 497.505,-34.8 497.505,-34.8 503.505,-34.8 509.505,-40.8 509.505,-46.8 509.505,-46.8 509.505,-173.2 509.505,-173.2 509.505,-179.2 503.505,-185.2 497.505,-185.2 497.505,-185.2 388.495,-185.2 388.495,-185.2 382.495,-185.2 376.495,-179.2 376.495,-173.2 376.495,-173.2 376.495,-46.8 376.495,-46.8 376.495,-40.8 382.495,-34.8 388.495,-34.8"/>
<text text-anchor="middle" x="443" y="-167.2" font-family="Times,serif" font-size="14.00">Attachment</text>
<polyline fill="none" stroke="black" points="376.495,-160.4 509.505,-160.4 "/>
<text text-anchor="start" x="384.495" y="-142.4" font-family="Times,serif" font-size="14.00">id :integer</text>
<text text-anchor="start" x="384.495" y="-125.6" font-family="Times,serif" font-size="14.00">name :string</text>
<text text-anchor="start" x="384.495" y="-108.8" font-family="Times,serif" font-size="14.00">url :string</text>
<text text-anchor="start" x="384.495" y="-92" font-family="Times,serif" font-size="14.00">type :string</text>
<text text-anchor="start" x="384.495" y="-75.2" font-family="Times,serif" font-size="14.00">task_id :integer</text>
<text text-anchor="start" x="384.495" y="-58.4" font-family="Times,serif" font-size="14.00">created_at :datetime</text>
<text text-anchor="start" x="384.495" y="-41.6" font-family="Times,serif" font-size="14.00">updated_at :datetime</text>
</g>
<!-- Client -->
<g id="node5" class="node"><title>Client</title>
<path fill="none" stroke="black" d="M873.495,-697.6C873.495,-697.6 982.505,-697.6 982.505,-697.6 988.505,-697.6 994.505,-703.6 994.505,-709.6 994.505,-709.6 994.505,-802.4 994.505,-802.4 994.505,-808.4 988.505,-814.4 982.505,-814.4 982.505,-814.4 873.495,-814.4 873.495,-814.4 867.495,-814.4 861.495,-808.4 861.495,-802.4 861.495,-802.4 861.495,-709.6 861.495,-709.6 861.495,-703.6 867.495,-697.6 873.495,-697.6"/>
<text text-anchor="middle" x="928" y="-796.4" font-family="Times,serif" font-size="14.00">Client</text>
<polyline fill="none" stroke="black" points="861.495,-789.6 994.505,-789.6 "/>
<text text-anchor="start" x="869.495" y="-771.6" font-family="Times,serif" font-size="14.00">id :integer</text>
<text text-anchor="start" x="869.495" y="-754.8" font-family="Times,serif" font-size="14.00">name :string</text>
<text text-anchor="start" x="869.495" y="-738" font-family="Times,serif" font-size="14.00">email :string</text>
<text text-anchor="start" x="869.495" y="-721.2" font-family="Times,serif" font-size="14.00">created_at :datetime</text>
<text text-anchor="start" x="869.495" y="-704.4" font-family="Times,serif" font-size="14.00">updated_at :datetime</text>
</g>
<!-- Site -->
<g id="node11" class="node"><title>Site</title>
<path fill="none" stroke="black" d="M873.495,-391.6C873.495,-391.6 982.505,-391.6 982.505,-391.6 988.505,-391.6 994.505,-397.6 994.505,-403.6 994.505,-403.6 994.505,-496.4 994.505,-496.4 994.505,-502.4 988.505,-508.4 982.505,-508.4 982.505,-508.4 873.495,-508.4 873.495,-508.4 867.495,-508.4 861.495,-502.4 861.495,-496.4 861.495,-496.4 861.495,-403.6 861.495,-403.6 861.495,-397.6 867.495,-391.6 873.495,-391.6"/>
<text text-anchor="middle" x="928" y="-490.4" font-family="Times,serif" font-size="14.00">Site</text>
<polyline fill="none" stroke="black" points="861.495,-483.6 994.505,-483.6 "/>
<text text-anchor="start" x="869.495" y="-465.6" font-family="Times,serif" font-size="14.00">id :integer</text>
<text text-anchor="start" x="869.495" y="-448.8" font-family="Times,serif" font-size="14.00">url :string</text>
<text text-anchor="start" x="869.495" y="-432" font-family="Times,serif" font-size="14.00">client_id :integer</text>
<text text-anchor="start" x="869.495" y="-415.2" font-family="Times,serif" font-size="14.00">created_at :datetime</text>
<text text-anchor="start" x="869.495" y="-398.4" font-family="Times,serif" font-size="14.00">updated_at :datetime</text>
</g>
<!-- Client&#45;&gt;Site -->
<g id="edge2" class="edge"><title>Client&#45;&gt;Site</title>
<path fill="none" stroke="#842edb" d="M928,-689.349C928,-638.986 928,-569.697 928,-518.805"/>
<ellipse fill="none" stroke="#842edb" cx="928" cy="-693.463" rx="4" ry="4"/>
<polygon fill="#842edb" stroke="#842edb" points="928,-518.56 932.5,-508.56 928,-513.56 928,-508.56 928,-508.56 928,-508.56 928,-513.56 923.5,-508.56 928,-518.56 928,-518.56"/>
</g>
<!-- Comment -->
<g id="node6" class="node"><title>Comment</title>
<path fill="none" stroke="black" d="M539.495,-43.2C539.495,-43.2 648.505,-43.2 648.505,-43.2 654.505,-43.2 660.505,-49.2 660.505,-55.2 660.505,-55.2 660.505,-164.8 660.505,-164.8 660.505,-170.8 654.505,-176.8 648.505,-176.8 648.505,-176.8 539.495,-176.8 539.495,-176.8 533.495,-176.8 527.495,-170.8 527.495,-164.8 527.495,-164.8 527.495,-55.2 527.495,-55.2 527.495,-49.2 533.495,-43.2 539.495,-43.2"/>
<text text-anchor="middle" x="594" y="-158.8" font-family="Times,serif" font-size="14.00">Comment</text>
<polyline fill="none" stroke="black" points="527.495,-152 660.505,-152 "/>
<text text-anchor="start" x="535.495" y="-134" font-family="Times,serif" font-size="14.00">id :integer</text>
<text text-anchor="start" x="535.495" y="-117.2" font-family="Times,serif" font-size="14.00">task_id :integer</text>
<text text-anchor="start" x="535.495" y="-100.4" font-family="Times,serif" font-size="14.00">content :text</text>
<text text-anchor="start" x="535.495" y="-83.6" font-family="Times,serif" font-size="14.00">user_id :integer</text>
<text text-anchor="start" x="535.495" y="-66.8" font-family="Times,serif" font-size="14.00">created_at :datetime</text>
<text text-anchor="start" x="535.495" y="-50" font-family="Times,serif" font-size="14.00">updated_at :datetime</text>
</g>
<!-- EmailItem -->
<g id="node7" class="node"><title>EmailItem</title>
<path fill="none" stroke="black" d="M690.388,-1.2C690.388,-1.2 819.612,-1.2 819.612,-1.2 825.612,-1.2 831.612,-7.2 831.612,-13.2 831.612,-13.2 831.612,-206.8 831.612,-206.8 831.612,-212.8 825.612,-218.8 819.612,-218.8 819.612,-218.8 690.388,-218.8 690.388,-218.8 684.388,-218.8 678.388,-212.8 678.388,-206.8 678.388,-206.8 678.388,-13.2 678.388,-13.2 678.388,-7.2 684.388,-1.2 690.388,-1.2"/>
<text text-anchor="middle" x="755" y="-200.8" font-family="Times,serif" font-size="14.00">EmailItem</text>
<polyline fill="none" stroke="black" points="678.388,-194 831.612,-194 "/>
<text text-anchor="start" x="686.388" y="-176" font-family="Times,serif" font-size="14.00">id :integer</text>
<text text-anchor="start" x="686.388" y="-159.2" font-family="Times,serif" font-size="14.00">content :text</text>
<text text-anchor="start" x="686.388" y="-142.4" font-family="Times,serif" font-size="14.00">removed :boolean</text>
<text text-anchor="start" x="686.388" y="-125.6" font-family="Times,serif" font-size="14.00">owner_type :string</text>
<text text-anchor="start" x="686.388" y="-108.8" font-family="Times,serif" font-size="14.00">owner_id :integer</text>
<text text-anchor="start" x="686.388" y="-92" font-family="Times,serif" font-size="14.00">email_thread_id :integer</text>
<text text-anchor="start" x="686.388" y="-75.2" font-family="Times,serif" font-size="14.00">created_at :datetime</text>
<text text-anchor="start" x="686.388" y="-58.4" font-family="Times,serif" font-size="14.00">updated_at :datetime</text>
<text text-anchor="start" x="686.388" y="-41.6" font-family="Times,serif" font-size="14.00">uid :integer</text>
<text text-anchor="start" x="686.388" y="-24.8" font-family="Times,serif" font-size="14.00">prepared :boolean</text>
<text text-anchor="start" x="686.388" y="-8" font-family="Times,serif" font-size="14.00">new :integer</text>
</g>
<!-- EmailThread -->
<g id="node8" class="node"><title>EmailThread</title>
<path fill="none" stroke="black" d="M683.495,-366.4C683.495,-366.4 792.505,-366.4 792.505,-366.4 798.505,-366.4 804.505,-372.4 804.505,-378.4 804.505,-378.4 804.505,-521.6 804.505,-521.6 804.505,-527.6 798.505,-533.6 792.505,-533.6 792.505,-533.6 683.495,-533.6 683.495,-533.6 677.495,-533.6 671.495,-527.6 671.495,-521.6 671.495,-521.6 671.495,-378.4 671.495,-378.4 671.495,-372.4 677.495,-366.4 683.495,-366.4"/>
<text text-anchor="middle" x="738" y="-515.6" font-family="Times,serif" font-size="14.00">EmailThread</text>
<polyline fill="none" stroke="black" points="671.495,-508.8 804.505,-508.8 "/>
<text text-anchor="start" x="679.495" y="-490.8" font-family="Times,serif" font-size="14.00">id :integer</text>
<text text-anchor="start" x="679.495" y="-474" font-family="Times,serif" font-size="14.00">email :string</text>
<text text-anchor="start" x="679.495" y="-457.2" font-family="Times,serif" font-size="14.00">title :string</text>
<text text-anchor="start" x="679.495" y="-440.4" font-family="Times,serif" font-size="14.00">created_at :datetime</text>
<text text-anchor="start" x="679.495" y="-423.6" font-family="Times,serif" font-size="14.00">updated_at :datetime</text>
<text text-anchor="start" x="679.495" y="-406.8" font-family="Times,serif" font-size="14.00">removed :boolean</text>
<text text-anchor="start" x="679.495" y="-390" font-family="Times,serif" font-size="14.00">tags :text</text>
<text text-anchor="start" x="679.495" y="-373.2" font-family="Times,serif" font-size="14.00">ticket_id :integer</text>
</g>
<!-- EmailThread&#45;&gt;EmailItem -->
<g id="edge3" class="edge"><title>EmailThread&#45;&gt;EmailItem</title>
<path fill="none" stroke="#ee8f59" d="M742.57,-358.142C744.565,-318.473 746.931,-271.438 749.06,-229.103"/>
<ellipse fill="none" stroke="#ee8f59" cx="742.36" cy="-362.321" rx="4" ry="4"/>
<polygon fill="#ee8f59" stroke="#ee8f59" points="749.065,-229.006 754.061,-219.244 749.316,-224.012 749.567,-219.018 749.567,-219.018 749.567,-219.018 749.316,-224.012 745.073,-218.792 749.065,-229.006 749.065,-229.006"/>
</g>
<!-- Role -->
<g id="node10" class="node"><title>Role</title>
<path fill="none" stroke="black" d="M1060.1,-689.2C1060.1,-689.2 1169.9,-689.2 1169.9,-689.2 1175.9,-689.2 1181.9,-695.2 1181.9,-701.2 1181.9,-701.2 1181.9,-810.8 1181.9,-810.8 1181.9,-816.8 1175.9,-822.8 1169.9,-822.8 1169.9,-822.8 1060.1,-822.8 1060.1,-822.8 1054.1,-822.8 1048.1,-816.8 1048.1,-810.8 1048.1,-810.8 1048.1,-701.2 1048.1,-701.2 1048.1,-695.2 1054.1,-689.2 1060.1,-689.2"/>
<text text-anchor="middle" x="1115" y="-804.8" font-family="Times,serif" font-size="14.00">Role</text>
<polyline fill="none" stroke="black" points="1048.1,-798 1181.9,-798 "/>
<text text-anchor="start" x="1056.1" y="-780" font-family="Times,serif" font-size="14.00">id :integer</text>
<text text-anchor="start" x="1056.1" y="-763.2" font-family="Times,serif" font-size="14.00">name :string</text>
<text text-anchor="start" x="1056.1" y="-746.4" font-family="Times,serif" font-size="14.00">resource_id :integer</text>
<text text-anchor="start" x="1056.1" y="-729.6" font-family="Times,serif" font-size="14.00">resource_type :string</text>
<text text-anchor="start" x="1056.1" y="-712.8" font-family="Times,serif" font-size="14.00">created_at :datetime</text>
<text text-anchor="start" x="1056.1" y="-696" font-family="Times,serif" font-size="14.00">updated_at :datetime</text>
</g>
<!-- User -->
<g id="node16" class="node"><title>User</title>
<path fill="none" stroke="black" d="M1024.72,-257.2C1024.72,-257.2 1205.28,-257.2 1205.28,-257.2 1211.28,-257.2 1217.28,-263.2 1217.28,-269.2 1217.28,-269.2 1217.28,-630.8 1217.28,-630.8 1217.28,-636.8 1211.28,-642.8 1205.28,-642.8 1205.28,-642.8 1024.72,-642.8 1024.72,-642.8 1018.72,-642.8 1012.72,-636.8 1012.72,-630.8 1012.72,-630.8 1012.72,-269.2 1012.72,-269.2 1012.72,-263.2 1018.72,-257.2 1024.72,-257.2"/>
<text text-anchor="middle" x="1115" y="-624.8" font-family="Times,serif" font-size="14.00">User</text>
<polyline fill="none" stroke="black" points="1012.72,-618 1217.28,-618 "/>
<text text-anchor="start" x="1020.72" y="-600" font-family="Times,serif" font-size="14.00">id :integer</text>
<text text-anchor="start" x="1020.72" y="-583.2" font-family="Times,serif" font-size="14.00">initials :string</text>
<text text-anchor="start" x="1020.72" y="-566.4" font-family="Times,serif" font-size="14.00">email :string</text>
<text text-anchor="start" x="1020.72" y="-549.6" font-family="Times,serif" font-size="14.00">encrypted_password :string</text>
<text text-anchor="start" x="1020.72" y="-532.8" font-family="Times,serif" font-size="14.00">reset_password_token :string</text>
<text text-anchor="start" x="1020.72" y="-516" font-family="Times,serif" font-size="14.00">reset_password_sent_at :datetime</text>
<text text-anchor="start" x="1020.72" y="-499.2" font-family="Times,serif" font-size="14.00">remember_created_at :datetime</text>
<text text-anchor="start" x="1020.72" y="-482.4" font-family="Times,serif" font-size="14.00">sign_in_count :integer</text>
<text text-anchor="start" x="1020.72" y="-465.6" font-family="Times,serif" font-size="14.00">current_sign_in_at :datetime</text>
<text text-anchor="start" x="1020.72" y="-448.8" font-family="Times,serif" font-size="14.00">last_sign_in_at :datetime</text>
<text text-anchor="start" x="1020.72" y="-432" font-family="Times,serif" font-size="14.00">current_sign_in_ip :string</text>
<text text-anchor="start" x="1020.72" y="-415.2" font-family="Times,serif" font-size="14.00">last_sign_in_ip :string</text>
<text text-anchor="start" x="1020.72" y="-398.4" font-family="Times,serif" font-size="14.00">created_at :datetime</text>
<text text-anchor="start" x="1020.72" y="-381.6" font-family="Times,serif" font-size="14.00">updated_at :datetime</text>
<text text-anchor="start" x="1020.72" y="-364.8" font-family="Times,serif" font-size="14.00">name :string</text>
<text text-anchor="start" x="1020.72" y="-348" font-family="Times,serif" font-size="14.00">invitation_token :string</text>
<text text-anchor="start" x="1020.72" y="-331.2" font-family="Times,serif" font-size="14.00">invitation_sent_at :datetime</text>
<text text-anchor="start" x="1020.72" y="-314.4" font-family="Times,serif" font-size="14.00">invitation_accepted_at :datetime</text>
<text text-anchor="start" x="1020.72" y="-297.6" font-family="Times,serif" font-size="14.00">invitation_limit :integer</text>
<text text-anchor="start" x="1020.72" y="-280.8" font-family="Times,serif" font-size="14.00">invited_by_id :integer</text>
<text text-anchor="start" x="1020.72" y="-264" font-family="Times,serif" font-size="14.00">invited_by_type :string</text>
</g>
<!-- Role&#45;&gt;User -->
<g id="edge4" class="edge"><title>Role&#45;&gt;User</title>
<path fill="none" stroke="#239aea" d="M1115,-678.857C1115,-670.628 1115,-661.999 1115,-653.113"/>
<polygon fill="#239aea" stroke="#239aea" points="1115,-679.037 1110.5,-689.036 1115,-684.037 1115,-689.037 1115,-689.037 1115,-689.037 1115,-684.037 1119.5,-689.037 1115,-679.037 1115,-679.037"/>
<polygon fill="#239aea" stroke="#239aea" points="1115,-652.979 1119.5,-642.979 1115,-647.979 1115,-642.979 1115,-642.979 1115,-642.979 1115,-647.979 1110.5,-642.979 1115,-652.979 1115,-652.979"/>
</g>
<!-- AccessCredential -->
<g id="node17" class="node"><title>AccessCredential</title>
<ellipse fill="none" stroke="black" cx="928" cy="-110" rx="78.41" ry="18"/>
<text text-anchor="middle" x="928" y="-104.4" font-family="Times,serif" font-size="14.00">AccessCredential</text>
</g>
<!-- Site&#45;&gt;AccessCredential -->
<g id="edge5" class="edge"><title>Site&#45;&gt;AccessCredential</title>
<path fill="none" stroke="#b705f5" d="M928,-383.262C928,-308.974 928,-191.519 928,-138.536"/>
<ellipse fill="none" stroke="#b705f5" cx="928" cy="-387.28" rx="4" ry="4"/>
<polygon fill="#b705f5" stroke="#b705f5" points="928,-138.247 932.5,-128.247 928,-133.247 928,-128.247 928,-128.247 928,-128.247 928,-133.247 923.5,-128.247 928,-138.247 928,-138.247"/>
</g>
<!-- Task -->
<g id="node12" class="node"><title>Task</title>
<path fill="none" stroke="black" d="M499.098,-341.2C499.098,-341.2 608.902,-341.2 608.902,-341.2 614.902,-341.2 620.902,-347.2 620.902,-353.2 620.902,-353.2 620.902,-546.8 620.902,-546.8 620.902,-552.8 614.902,-558.8 608.902,-558.8 608.902,-558.8 499.098,-558.8 499.098,-558.8 493.098,-558.8 487.098,-552.8 487.098,-546.8 487.098,-546.8 487.098,-353.2 487.098,-353.2 487.098,-347.2 493.098,-341.2 499.098,-341.2"/>
<text text-anchor="middle" x="554" y="-540.8" font-family="Times,serif" font-size="14.00">Task</text>
<polyline fill="none" stroke="black" points="487.098,-534 620.902,-534 "/>
<text text-anchor="start" x="495.098" y="-516" font-family="Times,serif" font-size="14.00">id :integer</text>
<text text-anchor="start" x="495.098" y="-499.2" font-family="Times,serif" font-size="14.00">ticket_id :integer</text>
<text text-anchor="start" x="495.098" y="-482.4" font-family="Times,serif" font-size="14.00">quoted_time :float</text>
<text text-anchor="start" x="495.098" y="-465.6" font-family="Times,serif" font-size="14.00">real_time :float</text>
<text text-anchor="start" x="495.098" y="-448.8" font-family="Times,serif" font-size="14.00">content :text</text>
<text text-anchor="start" x="495.098" y="-432" font-family="Times,serif" font-size="14.00">task_state :integer</text>
<text text-anchor="start" x="495.098" y="-415.2" font-family="Times,serif" font-size="14.00">task_type_id :integer</text>
<text text-anchor="start" x="495.098" y="-398.4" font-family="Times,serif" font-size="14.00">tested_by :integer</text>
<text text-anchor="start" x="495.098" y="-381.6" font-family="Times,serif" font-size="14.00">done_by :integer</text>
<text text-anchor="start" x="495.098" y="-364.8" font-family="Times,serif" font-size="14.00">created_at :datetime</text>
<text text-anchor="start" x="495.098" y="-348" font-family="Times,serif" font-size="14.00">updated_at :datetime</text>
</g>
<!-- Task&#45;&gt;Attachment -->
<g id="edge6" class="edge"><title>Task&#45;&gt;Attachment</title>
<path fill="none" stroke="#4de367" d="M516.011,-333.322C501.083,-287.864 484.271,-236.672 470.546,-194.88"/>
<ellipse fill="none" stroke="#4de367" cx="517.326" cy="-337.325" rx="4.00001" ry="4.00001"/>
<polygon fill="#4de367" stroke="#4de367" points="470.518,-194.792 471.673,-183.887 468.958,-190.042 467.398,-185.292 467.398,-185.292 467.398,-185.292 468.958,-190.042 463.122,-186.696 470.518,-194.792 470.518,-194.792"/>
</g>
<!-- Task&#45;&gt;Comment -->
<g id="edge7" class="edge"><title>Task&#45;&gt;Comment</title>
<path fill="none" stroke="#95b1fd" d="M567.71,-333.15C573.429,-284.828 579.911,-230.051 585.008,-186.982"/>
<ellipse fill="none" stroke="#95b1fd" cx="567.236" cy="-337.153" rx="4.00001" ry="4.00001"/>
<polygon fill="#95b1fd" stroke="#95b1fd" points="585.031,-186.789 590.675,-177.387 585.618,-181.824 586.206,-176.858 586.206,-176.858 586.206,-176.858 585.618,-181.824 581.737,-176.329 585.031,-186.789 585.031,-186.789"/>
</g>
<!-- TaskState -->
<g id="node13" class="node"><title>TaskState</title>
<path fill="none" stroke="black" d="M1211.49,-706C1211.49,-706 1320.51,-706 1320.51,-706 1326.51,-706 1332.51,-712 1332.51,-718 1332.51,-718 1332.51,-794 1332.51,-794 1332.51,-800 1326.51,-806 1320.51,-806 1320.51,-806 1211.49,-806 1211.49,-806 1205.49,-806 1199.49,-800 1199.49,-794 1199.49,-794 1199.49,-718 1199.49,-718 1199.49,-712 1205.49,-706 1211.49,-706"/>
<text text-anchor="middle" x="1266" y="-788" font-family="Times,serif" font-size="14.00">TaskState</text>
<polyline fill="none" stroke="black" points="1199.49,-781.2 1332.51,-781.2 "/>
<text text-anchor="start" x="1207.49" y="-763.2" font-family="Times,serif" font-size="14.00">id :integer</text>
<text text-anchor="start" x="1207.49" y="-746.4" font-family="Times,serif" font-size="14.00">name :string</text>
<text text-anchor="start" x="1207.49" y="-729.6" font-family="Times,serif" font-size="14.00">created_at :datetime</text>
<text text-anchor="start" x="1207.49" y="-712.8" font-family="Times,serif" font-size="14.00">updated_at :datetime</text>
</g>
<!-- TaskType -->
<g id="node14" class="node"><title>TaskType</title>
<path fill="none" stroke="black" d="M1362.49,-697.6C1362.49,-697.6 1471.51,-697.6 1471.51,-697.6 1477.51,-697.6 1483.51,-703.6 1483.51,-709.6 1483.51,-709.6 1483.51,-802.4 1483.51,-802.4 1483.51,-808.4 1477.51,-814.4 1471.51,-814.4 1471.51,-814.4 1362.49,-814.4 1362.49,-814.4 1356.49,-814.4 1350.49,-808.4 1350.49,-802.4 1350.49,-802.4 1350.49,-709.6 1350.49,-709.6 1350.49,-703.6 1356.49,-697.6 1362.49,-697.6"/>
<text text-anchor="middle" x="1417" y="-796.4" font-family="Times,serif" font-size="14.00">TaskType</text>
<polyline fill="none" stroke="black" points="1350.49,-789.6 1483.51,-789.6 "/>
<text text-anchor="start" x="1358.49" y="-771.6" font-family="Times,serif" font-size="14.00">id :integer</text>
<text text-anchor="start" x="1358.49" y="-754.8" font-family="Times,serif" font-size="14.00">name :string</text>
<text text-anchor="start" x="1358.49" y="-738" font-family="Times,serif" font-size="14.00">image :string</text>
<text text-anchor="start" x="1358.49" y="-721.2" font-family="Times,serif" font-size="14.00">created_at :datetime</text>
<text text-anchor="start" x="1358.49" y="-704.4" font-family="Times,serif" font-size="14.00">updated_at :datetime</text>
</g>
<!-- Ticket -->
<g id="node15" class="node"><title>Ticket</title>
<path fill="none" stroke="black" d="M480.495,-680.8C480.495,-680.8 589.505,-680.8 589.505,-680.8 595.505,-680.8 601.505,-686.8 601.505,-692.8 601.505,-692.8 601.505,-819.2 601.505,-819.2 601.505,-825.2 595.505,-831.2 589.505,-831.2 589.505,-831.2 480.495,-831.2 480.495,-831.2 474.495,-831.2 468.495,-825.2 468.495,-819.2 468.495,-819.2 468.495,-692.8 468.495,-692.8 468.495,-686.8 474.495,-680.8 480.495,-680.8"/>
<text text-anchor="middle" x="535" y="-813.2" font-family="Times,serif" font-size="14.00">Ticket</text>
<polyline fill="none" stroke="black" points="468.495,-806.4 601.505,-806.4 "/>
<text text-anchor="start" x="476.495" y="-788.4" font-family="Times,serif" font-size="14.00">id :integer</text>
<text text-anchor="start" x="476.495" y="-771.6" font-family="Times,serif" font-size="14.00">name :string</text>
<text text-anchor="start" x="476.495" y="-754.8" font-family="Times,serif" font-size="14.00">client_id :integer</text>
<text text-anchor="start" x="476.495" y="-738" font-family="Times,serif" font-size="14.00">site :integer</text>
<text text-anchor="start" x="476.495" y="-721.2" font-family="Times,serif" font-size="14.00">created_at :datetime</text>
<text text-anchor="start" x="476.495" y="-704.4" font-family="Times,serif" font-size="14.00">updated_at :datetime</text>
<text text-anchor="start" x="476.495" y="-687.6" font-family="Times,serif" font-size="14.00">state :string</text>
</g>
<!-- Ticket&#45;&gt;Task -->
<g id="edge8" class="edge"><title>Ticket&#45;&gt;Task</title>
<path fill="none" stroke="#7385bf" d="M540.165,-672.362C542.151,-640.589 544.458,-603.669 546.613,-569.193"/>
<ellipse fill="none" stroke="#7385bf" cx="539.897" cy="-676.641" rx="4" ry="4"/>
<polygon fill="#7385bf" stroke="#7385bf" points="546.622,-569.042 551.737,-559.343 546.934,-564.052 547.246,-559.062 547.246,-559.062 547.246,-559.062 546.934,-564.052 542.755,-558.781 546.622,-569.042 546.622,-569.042"/>
</g>
<!-- Ticket&#45;&gt;Attachment -->
<g id="edge9" class="edge"><title>Ticket&#45;&gt;Attachment</title>
<path fill="none" stroke="#276922" d="M487.552,-671.248C483.806,-662.248 480.509,-653.065 478,-644 455.318,-562.04 447.172,-323.938 444.375,-195.496"/>
<polygon fill="#276922" stroke="#276922" points="487.61,-671.381 487.479,-682.346 489.607,-675.965 491.605,-680.549 491.605,-680.549 491.605,-680.549 489.607,-675.965 495.73,-678.751 487.61,-671.381 487.61,-671.381"/>
<polygon fill="#276922" stroke="#276922" points="444.371,-195.305 448.659,-185.212 444.266,-190.306 444.16,-185.307 444.16,-185.307 444.16,-185.307 444.266,-190.306 439.661,-185.402 444.371,-195.305 444.371,-195.305"/>
</g>
<!-- Ticket&#45;&gt;EmailThread -->
<g id="edge10" class="edge"><title>Ticket&#45;&gt;EmailThread</title>
<path fill="none" stroke="#374c9d" d="M606.41,-674.188C614.311,-664.233 622.015,-654.029 629,-644 651.114,-612.251 672.672,-575.669 690.698,-542.948"/>
<ellipse fill="none" stroke="#374c9d" cx="603.698" cy="-677.569" rx="4.00002" ry="4.00002"/>
<polygon fill="#374c9d" stroke="#374c9d" points="690.888,-542.602 699.635,-535.988 693.287,-538.215 695.687,-533.828 695.687,-533.828 695.687,-533.828 693.287,-538.215 691.739,-531.669 690.888,-542.602 690.888,-542.602"/>
</g>
<!-- Ticket&#45;&gt;Property -->
<g id="edge11" class="edge"><title>Ticket&#45;&gt;Property</title>
<path fill="none" stroke="#20d508" d="M465.225,-674.217C457.979,-664.326 451.062,-654.128 445,-644 424.615,-609.942 406.88,-569.811 393.244,-534.989"/>
<ellipse fill="none" stroke="#20d508" cx="467.639" cy="-677.461" rx="4.00002" ry="4.00002"/>
<polygon fill="#20d508" stroke="#20d508" points="393.111,-534.646 393.705,-523.697 391.309,-529.982 389.507,-525.318 389.507,-525.318 389.507,-525.318 391.309,-529.982 385.31,-526.94 393.111,-534.646 393.111,-534.646"/>
</g>
</g>
</svg>
